<?xml version="1.0" encoding="utf-8" standalone="no"?>
<!DOCTYPE svg PUBLIC "-//W3C//DTD SVG 1.1//EN"
  "http://www.w3.org/Graphics/SVG/1.1/DTD/svg11.dtd">
<!-- Created with matplotlib (http://matplotlib.org/) -->
<svg height="385pt" version="1.1" viewBox="0 0 437 385" width="437pt" xmlns="http://www.w3.org/2000/svg" xmlns:xlink="http://www.w3.org/1999/xlink">
 <defs>
  <style type="text/css">
*{stroke-linecap:butt;stroke-linejoin:round;}
  </style>
 </defs>
 <g id="figure_1">
  <g id="patch_1">
   <path d="M 0 385.622031 
L 437.923906 385.622031 
L 437.923906 0 
L 0 0 
z
" style="fill:#ffffff;"/>
  </g>
  <g id="axes_1">
   <g id="patch_2">
    <path d="M 92.423906 336.86 
L 427.223906 336.86 
L 427.223906 10.7 
L 92.423906 10.7 
z
" style="fill:#e5e5e5;"/>
   </g>
   <g id="matplotlib.axis_1">
    <g id="xtick_1">
     <g id="line2d_1">
      <path clip-path="url(#p8069bbdf6c)" d="M 102.841133 336.86 
L 102.841133 10.7 
" style="fill:none;stroke:#ffffff;stroke-linecap:square;stroke-width:2;"/>
     </g>
     <g id="line2d_2">
      <defs>
       <path d="M 0 0 
L 0 3.5 
" id="mf46cafabed" style="stroke:#555555;stroke-width:0.8;"/>
      </defs>
      <g>
       <use style="fill:#555555;stroke:#555555;stroke-width:0.8;" x="102.841133" xlink:href="#mf46cafabed" y="336.86"/>
      </g>
     </g>
     <g id="text_1">
      <text style="fill:#555555;font-family:Arial Narrow;font-size:17px;font-style:normal;font-weight:400;text-anchor:middle;" transform="rotate(-0, 102.841133, 356.028281)" x="102.841133" y="356.028281">−1.6</text>
     </g>
    </g>
    <g id="xtick_2">
     <g id="line2d_3">
      <path clip-path="url(#p8069bbdf6c)" d="M 145.997909 336.86 
L 145.997909 10.7 
" style="fill:none;stroke:#ffffff;stroke-linecap:square;stroke-width:2;"/>
     </g>
     <g id="line2d_4">
      <g>
       <use style="fill:#555555;stroke:#555555;stroke-width:0.8;" x="145.997909" xlink:href="#mf46cafabed" y="336.86"/>
      </g>
     </g>
     <g id="text_2">
      <text style="fill:#555555;font-family:Arial Narrow;font-size:17px;font-style:normal;font-weight:400;text-anchor:middle;" transform="rotate(-0, 145.997909, 356.028281)" x="145.997909" y="356.028281">−1.2</text>
     </g>
    </g>
    <g id="xtick_3">
     <g id="line2d_5">
      <path clip-path="url(#p8069bbdf6c)" d="M 189.154685 336.86 
L 189.154685 10.7 
" style="fill:none;stroke:#ffffff;stroke-linecap:square;stroke-width:2;"/>
     </g>
     <g id="line2d_6">
      <g>
       <use style="fill:#555555;stroke:#555555;stroke-width:0.8;" x="189.154685" xlink:href="#mf46cafabed" y="336.86"/>
      </g>
     </g>
     <g id="text_3">
      <text style="fill:#555555;font-family:Arial Narrow;font-size:17px;font-style:normal;font-weight:400;text-anchor:middle;" transform="rotate(-0, 189.154685, 356.028281)" x="189.154685" y="356.028281">−0.8</text>
     </g>
    </g>
    <g id="xtick_4">
     <g id="line2d_7">
      <path clip-path="url(#p8069bbdf6c)" d="M 232.311461 336.86 
L 232.311461 10.7 
" style="fill:none;stroke:#ffffff;stroke-linecap:square;stroke-width:2;"/>
     </g>
     <g id="line2d_8">
      <g>
       <use style="fill:#555555;stroke:#555555;stroke-width:0.8;" x="232.311461" xlink:href="#mf46cafabed" y="336.86"/>
      </g>
     </g>
     <g id="text_4">
      <text style="fill:#555555;font-family:Arial Narrow;font-size:17px;font-style:normal;font-weight:400;text-anchor:middle;" transform="rotate(-0, 232.311461, 356.028281)" x="232.311461" y="356.028281">−0.4</text>
     </g>
    </g>
    <g id="xtick_5">
     <g id="line2d_9">
      <path clip-path="url(#p8069bbdf6c)" d="M 275.468238 336.86 
L 275.468238 10.7 
" style="fill:none;stroke:#ffffff;stroke-linecap:square;stroke-width:2;"/>
     </g>
     <g id="line2d_10">
      <g>
       <use style="fill:#555555;stroke:#555555;stroke-width:0.8;" x="275.468238" xlink:href="#mf46cafabed" y="336.86"/>
      </g>
     </g>
     <g id="text_5">
      <text style="fill:#555555;font-family:Arial Narrow;font-size:17px;font-style:normal;font-weight:400;text-anchor:middle;" transform="rotate(-0, 275.468238, 356.028281)" x="275.468238" y="356.028281">0.0</text>
     </g>
    </g>
    <g id="xtick_6">
     <g id="line2d_11">
      <path clip-path="url(#p8069bbdf6c)" d="M 318.625014 336.86 
L 318.625014 10.7 
" style="fill:none;stroke:#ffffff;stroke-linecap:square;stroke-width:2;"/>
     </g>
     <g id="line2d_12">
      <g>
       <use style="fill:#555555;stroke:#555555;stroke-width:0.8;" x="318.625014" xlink:href="#mf46cafabed" y="336.86"/>
      </g>
     </g>
     <g id="text_6">
      <text style="fill:#555555;font-family:Arial Narrow;font-size:17px;font-style:normal;font-weight:400;text-anchor:middle;" transform="rotate(-0, 318.625014, 356.028281)" x="318.625014" y="356.028281">0.4</text>
     </g>
    </g>
    <g id="xtick_7">
     <g id="line2d_13">
      <path clip-path="url(#p8069bbdf6c)" d="M 361.78179 336.86 
L 361.78179 10.7 
" style="fill:none;stroke:#ffffff;stroke-linecap:square;stroke-width:2;"/>
     </g>
     <g id="line2d_14">
      <g>
       <use style="fill:#555555;stroke:#555555;stroke-width:0.8;" x="361.78179" xlink:href="#mf46cafabed" y="336.86"/>
      </g>
     </g>
     <g id="text_7">
      <text style="fill:#555555;font-family:Arial Narrow;font-size:17px;font-style:normal;font-weight:400;text-anchor:middle;" transform="rotate(-0, 361.78179, 356.028281)" x="361.78179" y="356.028281">0.8</text>
     </g>
    </g>
    <g id="xtick_8">
     <g id="line2d_15">
      <path clip-path="url(#p8069bbdf6c)" d="M 404.938566 336.86 
L 404.938566 10.7 
" style="fill:none;stroke:#ffffff;stroke-linecap:square;stroke-width:2;"/>
     </g>
     <g id="line2d_16">
      <g>
       <use style="fill:#555555;stroke:#555555;stroke-width:0.8;" x="404.938566" xlink:href="#mf46cafabed" y="336.86"/>
      </g>
     </g>
     <g id="text_8">
      <text style="fill:#555555;font-family:Arial Narrow;font-size:17px;font-style:normal;font-weight:400;text-anchor:middle;" transform="rotate(-0, 404.938566, 356.028281)" x="404.938566" y="356.028281">1.2</text>
     </g>
    </g>
    <g id="text_9">
     <text style="fill:#555555;font-family:Arial Narrow;font-size:16px;font-style:normal;font-weight:700;text-anchor:middle;" transform="rotate(-0, 259.823906, 375.054531)" x="259.823906" y="375.054531">WIN PROBABILTY ADDED (WPA)</text>
    </g>
   </g>
   <g id="matplotlib.axis_2">
    <g id="ytick_1">
     <g id="line2d_17">
      <defs>
       <path d="M 0 0 
L -3.5 0 
" id="m543d55f74a" style="stroke:#555555;stroke-width:0.8;"/>
      </defs>
      <g>
       <use style="fill:#555555;stroke:#555555;stroke-width:0.8;" x="92.423906" xlink:href="#m543d55f74a" y="92.24"/>
      </g>
     </g>
     <g id="text_10">
      <text style="fill:#555555;font-family:Arial Narrow;font-size:17px;font-style:normal;font-weight:400;text-anchor:end;" transform="rotate(-0, 85.423906, 98.324141)" x="85.423906" y="98.324141">WHITE SOX</text>
     </g>
    </g>
    <g id="ytick_2">
     <g id="line2d_18">
      <g>
       <use style="fill:#555555;stroke:#555555;stroke-width:0.8;" x="92.423906" xlink:href="#m543d55f74a" y="255.32"/>
      </g>
     </g>
     <g id="text_11">
      <text style="fill:#555555;font-family:Arial Narrow;font-size:17px;font-style:normal;font-weight:400;text-anchor:end;" transform="rotate(-0, 85.423906, 261.404141)" x="85.423906" y="261.404141">CUBS</text>
     </g>
    </g>
   </g>
   <g id="patch_3">
    <path clip-path="url(#p8069bbdf6c)" d="M 209.654154 27.008 
L 209.654154 157.472 
L 303.250412 157.472 
L 303.250412 27.008 
L 209.654154 27.008 
z
" style="fill:none;stroke:#8fbc8b;stroke-linejoin:miter;stroke-width:2;"/>
   </g>
   <g id="patch_4">
    <path clip-path="url(#p8069bbdf6c)" d="M 260.902826 190.088 
L 260.902826 320.552 
L 291.382299 320.552 
L 291.382299 190.088 
L 260.902826 190.088 
z
" style="fill:none;stroke:#8fbc8b;stroke-linejoin:miter;stroke-width:2;"/>
   </g>
   <g id="PolyCollection_1">
    <defs>
     <path d="M 107.642088 -292.343662 
L 107.642088 -294.4204 
L 110.716468 -294.657052 
L 113.790848 -294.936899 
L 116.865229 -295.26531 
L 119.939609 -295.647796 
L 123.013989 -296.089897 
L 126.088369 -296.59705 
L 129.162749 -297.174433 
L 132.237129 -297.826794 
L 135.31151 -298.558255 
L 138.38589 -299.372111 
L 141.46027 -300.270614 
L 144.53465 -301.254752 
L 147.60903 -302.324047 
L 150.68341 -303.476346 
L 153.757791 -304.707657 
L 156.832171 -306.012009 
L 159.906551 -307.381361 
L 162.980931 -308.805571 
L 166.055311 -310.272438 
L 169.129691 -311.767816 
L 172.204072 -313.27582 
L 175.278452 -314.779116 
L 178.352832 -316.259302 
L 181.427212 -317.697373 
L 184.501592 -319.07425 
L 187.575972 -320.371371 
L 190.650353 -321.57131 
L 193.724733 -322.658409 
L 196.799113 -323.619382 
L 199.873493 -324.443874 
L 202.947873 -325.124933 
L 206.022253 -325.659379 
L 209.096634 -326.04803 
L 212.171014 -326.295785 
L 215.245394 -326.411539 
L 218.319774 -326.407936 
L 221.394154 -326.300959 
L 224.468534 -326.109376 
L 227.542915 -325.854066 
L 230.617295 -325.557244 
L 233.691675 -325.241634 
L 236.766055 -324.929613 
L 239.840435 -324.642369 
L 242.914815 -324.399113 
L 245.989196 -324.216373 
L 249.063576 -324.107398 
L 252.137956 -324.081707 
L 255.212336 -324.144775 
L 258.286716 -324.297893 
L 261.361096 -324.538184 
L 264.435476 -324.858775 
L 267.509857 -325.249117 
L 270.584237 -325.695429 
L 273.658617 -326.181251 
L 276.732997 -326.688081 
L 279.807377 -327.196054 
L 282.881757 -327.68466 
L 285.956138 -328.133444 
L 289.030518 -328.522686 
L 292.104898 -328.834017 
L 295.179278 -329.050961 
L 298.253658 -329.159379 
L 301.328038 -329.147807 
L 304.402419 -329.007679 
L 307.476799 -328.733439 
L 310.551179 -328.32254 
L 313.625559 -327.775342 
L 316.699939 -327.09493 
L 319.774319 -326.286855 
L 322.8487 -325.358832 
L 325.92308 -324.320402 
L 328.99746 -323.182587 
L 332.07184 -321.957539 
L 335.14622 -320.658214 
L 338.2206 -319.298063 
L 341.294981 -317.890766 
L 344.369361 -316.449982 
L 347.443741 -314.989148 
L 350.518121 -313.521294 
L 353.592501 -312.058895 
L 356.666881 -310.613733 
L 359.741262 -309.196782 
L 362.815642 -307.818102 
L 365.890022 -306.486751 
L 368.964402 -305.210697 
L 372.038782 -303.996756 
L 375.113162 -302.850537 
L 378.187543 -301.776409 
L 381.261923 -300.777486 
L 384.336303 -299.855645 
L 387.410683 -299.011555 
L 390.485063 -298.24475 
L 393.559443 -297.553712 
L 396.633824 -296.935987 
L 399.708204 -296.388309 
L 402.782584 -295.906746 
L 405.856964 -295.486852 
L 408.931344 -295.123812 
L 412.005724 -294.812591 
L 412.005724 -291.951471 
L 412.005724 -291.951471 
L 408.931344 -291.640251 
L 405.856964 -291.27721 
L 402.782584 -290.857316 
L 399.708204 -290.375754 
L 396.633824 -289.828076 
L 393.559443 -289.21035 
L 390.485063 -288.519313 
L 387.410683 -287.752508 
L 384.336303 -286.908418 
L 381.261923 -285.986576 
L 378.187543 -284.987654 
L 375.113162 -283.913525 
L 372.038782 -282.767307 
L 368.964402 -281.553366 
L 365.890022 -280.277312 
L 362.815642 -278.94596 
L 359.741262 -277.567281 
L 356.666881 -276.15033 
L 353.592501 -274.705168 
L 350.518121 -273.242769 
L 347.443741 -271.774915 
L 344.369361 -270.31408 
L 341.294981 -268.873296 
L 338.2206 -267.465999 
L 335.14622 -266.105849 
L 332.07184 -264.806523 
L 328.99746 -263.581475 
L 325.92308 -262.44366 
L 322.8487 -261.405231 
L 319.774319 -260.477208 
L 316.699939 -259.669133 
L 313.625559 -258.98872 
L 310.551179 -258.441523 
L 307.476799 -258.030624 
L 304.402419 -257.756384 
L 301.328038 -257.616256 
L 298.253658 -257.604683 
L 295.179278 -257.713101 
L 292.104898 -257.930045 
L 289.030518 -258.241377 
L 285.956138 -258.630619 
L 282.881757 -259.079403 
L 279.807377 -259.568008 
L 276.732997 -260.075981 
L 273.658617 -260.582811 
L 270.584237 -261.068634 
L 267.509857 -261.514945 
L 264.435476 -261.905287 
L 261.361096 -262.225878 
L 258.286716 -262.466169 
L 255.212336 -262.619288 
L 252.137956 -262.682356 
L 249.063576 -262.656664 
L 245.989196 -262.54769 
L 242.914815 -262.36495 
L 239.840435 -262.121694 
L 236.766055 -261.83445 
L 233.691675 -261.522428 
L 230.617295 -261.206819 
L 227.542915 -260.909997 
L 224.468534 -260.654686 
L 221.394154 -260.463103 
L 218.319774 -260.356126 
L 215.245394 -260.352523 
L 212.171014 -260.468277 
L 209.096634 -260.716032 
L 206.022253 -261.104683 
L 202.947873 -261.639129 
L 199.873493 -262.320189 
L 196.799113 -263.144681 
L 193.724733 -264.105654 
L 190.650353 -265.192753 
L 187.575972 -266.392692 
L 184.501592 -267.689813 
L 181.427212 -269.066689 
L 178.352832 -270.50476 
L 175.278452 -271.984947 
L 172.204072 -273.488242 
L 169.129691 -274.996246 
L 166.055311 -276.491624 
L 162.980931 -277.958491 
L 159.906551 -279.382702 
L 156.832171 -280.752053 
L 153.757791 -282.056405 
L 150.68341 -283.287717 
L 147.60903 -284.440016 
L 144.53465 -285.50931 
L 141.46027 -286.493449 
L 138.38589 -287.391951 
L 135.31151 -288.205808 
L 132.237129 -288.937269 
L 129.162749 -289.589629 
L 126.088369 -290.167012 
L 123.013989 -290.674165 
L 119.939609 -291.116266 
L 116.865229 -291.498752 
L 113.790848 -291.827164 
L 110.716468 -292.10701 
L 107.642088 -292.343662 
z
" id="maf76d78a9d"/>
    </defs>
    <g clip-path="url(#p8069bbdf6c)">
     <use style="fill-opacity:0.7;" x="0" xlink:href="#maf76d78a9d" y="385.622031"/>
    </g>
   </g>
   <g id="PolyCollection_2">
    <defs>
     <path d="M 157.820795 -129.196388 
L 157.820795 -131.407675 
L 160.252002 -131.661357 
L 162.683209 -131.955915 
L 165.114416 -132.293654 
L 167.545623 -132.676071 
L 169.97683 -133.103699 
L 172.408037 -133.576012 
L 174.839244 -134.091388 
L 177.27045 -134.647161 
L 179.701657 -135.239764 
L 182.132864 -135.864976 
L 184.564071 -136.51826 
L 186.995278 -137.19519 
L 189.426485 -137.891929 
L 191.857692 -138.605737 
L 194.288899 -139.335468 
L 196.720106 -140.081999 
L 199.151312 -140.848574 
L 201.582519 -141.64099 
L 204.013726 -142.467621 
L 206.444933 -143.33925 
L 208.87614 -144.268704 
L 211.307347 -145.27031 
L 213.738554 -146.359203 
L 216.169761 -147.550512 
L 218.600967 -148.858506 
L 221.032174 -150.295725 
L 223.463381 -151.87218 
L 225.894588 -153.594652 
L 228.325795 -155.466138 
L 230.757002 -157.485469 
L 233.188209 -159.647097 
L 235.619416 -161.941045 
L 238.050623 -164.353007 
L 240.481829 -166.864551 
L 242.913036 -169.453394 
L 245.344243 -172.093729 
L 247.77545 -174.756562 
L 250.206657 -177.410066 
L 252.637864 -180.019946 
L 255.069071 -182.549846 
L 257.500278 -184.961814 
L 259.931485 -187.216881 
L 262.362691 -189.275783 
L 264.793898 -191.09985 
L 267.225105 -192.652083 
L 269.656312 -193.898396 
L 272.087519 -194.809 
L 274.518726 -195.359842 
L 276.949933 -195.534031 
L 279.38114 -195.323122 
L 281.812346 -194.728159 
L 284.243553 -193.760356 
L 286.67476 -192.441323 
L 289.105967 -190.802762 
L 291.537174 -188.885618 
L 293.968381 -186.738675 
L 296.399588 -184.416669 
L 298.830795 -181.978011 
L 301.262002 -179.482248 
L 303.693208 -176.987429 
L 306.124415 -174.547535 
L 308.555622 -172.210144 
L 310.986829 -170.014477 
L 313.418036 -167.98995 
L 315.849243 -166.155302 
L 318.28045 -164.518355 
L 320.711657 -163.076383 
L 323.142864 -161.817054 
L 325.57407 -160.719849 
L 328.005277 -159.757855 
L 330.436484 -158.899791 
L 332.867691 -158.112133 
L 335.298898 -157.361206 
L 337.730105 -156.615109 
L 340.161312 -155.845387 
L 342.592519 -155.028359 
L 345.023725 -154.146053 
L 347.454932 -153.186744 
L 349.886139 -152.145078 
L 352.317346 -151.021835 
L 354.748553 -149.823366 
L 357.17976 -148.56078 
L 359.610967 -147.248943 
L 362.042174 -145.905384 
L 364.473381 -144.549158 
L 366.904587 -143.199754 
L 369.335794 -141.876105 
L 371.767001 -140.595729 
L 374.198208 -139.374048 
L 376.629415 -138.223901 
L 379.060622 -137.155242 
L 381.491829 -136.175029 
L 383.923036 -135.287273 
L 386.354242 -134.49323 
L 388.785449 -133.791699 
L 391.216656 -133.17939 
L 393.647863 -132.651345 
L 396.07907 -132.201355 
L 398.510277 -131.822384 
L 398.510277 -128.781679 
L 398.510277 -128.781679 
L 396.07907 -128.402707 
L 393.647863 -127.952718 
L 391.216656 -127.424672 
L 388.785449 -126.812364 
L 386.354242 -126.110832 
L 383.923036 -125.31679 
L 381.491829 -124.429034 
L 379.060622 -123.44882 
L 376.629415 -122.380161 
L 374.198208 -121.230014 
L 371.767001 -120.008334 
L 369.335794 -118.727957 
L 366.904587 -117.404308 
L 364.473381 -116.054905 
L 362.042174 -114.698678 
L 359.610967 -113.355119 
L 357.17976 -112.043283 
L 354.748553 -110.780697 
L 352.317346 -109.582228 
L 349.886139 -108.458985 
L 347.454932 -107.417319 
L 345.023725 -106.458009 
L 342.592519 -105.575704 
L 340.161312 -104.758675 
L 337.730105 -103.988954 
L 335.298898 -103.242857 
L 332.867691 -102.491929 
L 330.436484 -101.704271 
L 328.005277 -100.846207 
L 325.57407 -99.884213 
L 323.142864 -98.787009 
L 320.711657 -97.52768 
L 318.28045 -96.085708 
L 315.849243 -94.448761 
L 313.418036 -92.614113 
L 310.986829 -90.589585 
L 308.555622 -88.393919 
L 306.124415 -86.056527 
L 303.693208 -83.616633 
L 301.262002 -81.121814 
L 298.830795 -78.626051 
L 296.399588 -76.187393 
L 293.968381 -73.865388 
L 291.537174 -71.718445 
L 289.105967 -69.801301 
L 286.67476 -68.16274 
L 284.243553 -66.843706 
L 281.812346 -65.875903 
L 279.38114 -65.28094 
L 276.949933 -65.070031 
L 274.518726 -65.24422 
L 272.087519 -65.795063 
L 269.656312 -66.705666 
L 267.225105 -67.95198 
L 264.793898 -69.504212 
L 262.362691 -71.328279 
L 259.931485 -73.387181 
L 257.500278 -75.642249 
L 255.069071 -78.054216 
L 252.637864 -80.584116 
L 250.206657 -83.193997 
L 247.77545 -85.847501 
L 245.344243 -88.510334 
L 242.913036 -91.150669 
L 240.481829 -93.739512 
L 238.050623 -96.251056 
L 235.619416 -98.663018 
L 233.188209 -100.956966 
L 230.757002 -103.118593 
L 228.325795 -105.137924 
L 225.894588 -107.009411 
L 223.463381 -108.731882 
L 221.032174 -110.308337 
L 218.600967 -111.745556 
L 216.169761 -113.05355 
L 213.738554 -114.24486 
L 211.307347 -115.333752 
L 208.87614 -116.335359 
L 206.444933 -117.264812 
L 204.013726 -118.136441 
L 201.582519 -118.963072 
L 199.151312 -119.755488 
L 196.720106 -120.522063 
L 194.288899 -121.268595 
L 191.857692 -121.998325 
L 189.426485 -122.712133 
L 186.995278 -123.408872 
L 184.564071 -124.085802 
L 182.132864 -124.739087 
L 179.701657 -125.364298 
L 177.27045 -125.956902 
L 174.839244 -126.512675 
L 172.408037 -127.028051 
L 169.97683 -127.500364 
L 167.545623 -127.927992 
L 165.114416 -128.310408 
L 162.683209 -128.648148 
L 160.252002 -128.942705 
L 157.820795 -129.196388 
z
" id="m9d423b94fd"/>
    </defs>
    <g clip-path="url(#p8069bbdf6c)">
     <use style="fill:#202bdf;fill-opacity:0.7;" x="0" xlink:href="#m9d423b94fd" y="385.622031"/>
    </g>
   </g>
   <g id="line2d_19">
    <path clip-path="url(#p8069bbdf6c)" d="M 209.654154 92.24 
L 174.049813 92.24 
" style="fill:none;stroke:#8fbc8b;stroke-linecap:square;stroke-width:2;"/>
   </g>
   <g id="line2d_20">
    <path clip-path="url(#p8069bbdf6c)" d="M 303.250412 92.24 
L 345.597999 92.24 
" style="fill:none;stroke:#8fbc8b;stroke-linecap:square;stroke-width:2;"/>
   </g>
   <g id="line2d_21">
    <path clip-path="url(#p8069bbdf6c)" d="M 174.049813 59.624 
L 174.049813 124.856 
" style="fill:none;stroke:#8fbc8b;stroke-linecap:square;stroke-width:2;"/>
   </g>
   <g id="line2d_22">
    <path clip-path="url(#p8069bbdf6c)" d="M 345.597999 59.624 
L 345.597999 124.856 
" style="fill:none;stroke:#8fbc8b;stroke-linecap:square;stroke-width:2;"/>
   </g>
   <g id="line2d_23">
    <path clip-path="url(#p8069bbdf6c)" d="M 260.902826 255.32 
L 243.100655 255.32 
" style="fill:none;stroke:#8fbc8b;stroke-linecap:square;stroke-width:2;"/>
   </g>
   <g id="line2d_24">
    <path clip-path="url(#p8069bbdf6c)" d="M 291.382299 255.32 
L 328.335289 255.32 
" style="fill:none;stroke:#8fbc8b;stroke-linecap:square;stroke-width:2;"/>
   </g>
   <g id="line2d_25">
    <path clip-path="url(#p8069bbdf6c)" d="M 243.100655 222.704 
L 243.100655 287.936 
" style="fill:none;stroke:#8fbc8b;stroke-linecap:square;stroke-width:2;"/>
   </g>
   <g id="line2d_26">
    <path clip-path="url(#p8069bbdf6c)" d="M 328.335289 222.704 
L 328.335289 287.936 
" style="fill:none;stroke:#8fbc8b;stroke-linecap:square;stroke-width:2;"/>
   </g>
   <g id="line2d_27">
    <path clip-path="url(#p8069bbdf6c)" d="M 270.073641 27.008 
L 270.073641 157.472 
" style="fill:none;stroke:#8fbc8b;stroke-linecap:square;stroke-width:2;"/>
   </g>
   <g id="line2d_28">
    <path clip-path="url(#p8069bbdf6c)" d="M 281.402294 190.088 
L 281.402294 320.552 
" style="fill:none;stroke:#8fbc8b;stroke-linecap:square;stroke-width:2;"/>
   </g>
   <g id="patch_5">
    <path d="M 92.423906 336.86 
L 92.423906 10.7 
" style="fill:none;stroke:#ffffff;stroke-linecap:square;stroke-linejoin:miter;"/>
   </g>
   <g id="patch_6">
    <path d="M 427.223906 336.86 
L 427.223906 10.7 
" style="fill:none;stroke:#ffffff;stroke-linecap:square;stroke-linejoin:miter;"/>
   </g>
   <g id="patch_7">
    <path d="M 92.423906 336.86 
L 427.223906 336.86 
" style="fill:none;stroke:#ffffff;stroke-linecap:square;stroke-linejoin:miter;"/>
   </g>
   <g id="patch_8">
    <path d="M 92.423906 10.7 
L 427.223906 10.7 
" style="fill:none;stroke:#ffffff;stroke-linecap:square;stroke-linejoin:miter;"/>
   </g>
   <g id="PathCollection_1">
    <defs>
     <path d="M 0 2.5 
C 0.663008 2.5 1.29895 2.236584 1.767767 1.767767 
C 2.236584 1.29895 2.5 0.663008 2.5 0 
C 2.5 -0.663008 2.236584 -1.29895 1.767767 -1.767767 
C 1.29895 -2.236584 0.663008 -2.5 0 -2.5 
C -0.663008 -2.5 -1.29895 -2.236584 -1.767767 -1.767767 
C -2.236584 -1.29895 -2.5 -0.663008 -2.5 0 
C -2.5 0.663008 -2.236584 1.29895 -1.767767 1.767767 
C -1.29895 2.236584 -0.663008 2.5 0 2.5 
z
" id="C0_0_ffc69456bc"/>
    </defs>
    <g clip-path="url(#p8069bbdf6c)">
     <use style="fill:#ffa500;" x="174.049813" xlink:href="#C0_0_ffc69456bc" y="92.24"/>
    </g>
    <g clip-path="url(#p8069bbdf6c)">
     <use style="fill:#ffa500;" x="202.101718" xlink:href="#C0_0_ffc69456bc" y="92.24"/>
    </g>
    <g clip-path="url(#p8069bbdf6c)">
     <use style="fill:#ffa500;" x="204.259557" xlink:href="#C0_0_ffc69456bc" y="85.136116"/>
    </g>
    <g clip-path="url(#p8069bbdf6c)">
     <use style="fill:#ffa500;" x="207.496315" xlink:href="#C0_0_ffc69456bc" y="92.24"/>
    </g>
    <g clip-path="url(#p8069bbdf6c)">
     <use style="fill:#ffa500;" x="216.12767" xlink:href="#C0_0_ffc69456bc" y="92.24"/>
    </g>
    <g clip-path="url(#p8069bbdf6c)">
     <use style="fill:#ffa500;" x="230.153623" xlink:href="#C0_0_ffc69456bc" y="92.24"/>
    </g>
    <g clip-path="url(#p8069bbdf6c)">
     <use style="fill:#ffa500;" x="263.600124" xlink:href="#C0_0_ffc69456bc" y="92.24"/>
    </g>
    <g clip-path="url(#p8069bbdf6c)">
     <use style="fill:#ffa500;" x="276.547157" xlink:href="#C0_0_ffc69456bc" y="92.24"/>
    </g>
    <g clip-path="url(#p8069bbdf6c)">
     <use style="fill:#ffa500;" x="300.283384" xlink:href="#C0_0_ffc69456bc" y="92.24"/>
    </g>
    <g clip-path="url(#p8069bbdf6c)">
     <use style="fill:#ffa500;" x="302.441223" xlink:href="#C0_0_ffc69456bc" y="85.136116"/>
    </g>
    <g clip-path="url(#p8069bbdf6c)">
     <use style="fill:#ffa500;" x="303.520142" xlink:href="#C0_0_ffc69456bc" y="98.242258"/>
    </g>
    <g clip-path="url(#p8069bbdf6c)">
     <use style="fill:#ffa500;" x="309.993659" xlink:href="#C0_0_ffc69456bc" y="92.24"/>
    </g>
    <g clip-path="url(#p8069bbdf6c)">
     <use style="fill:#ffa500;" x="340.203402" xlink:href="#C0_0_ffc69456bc" y="92.24"/>
    </g>
    <g clip-path="url(#p8069bbdf6c)">
     <use style="fill:#ffa500;" x="345.597999" xlink:href="#C0_0_ffc69456bc" y="92.24"/>
    </g>
   </g>
   <g id="PathCollection_2">
    <defs>
     <path d="M 0 2.5 
C 0.663008 2.5 1.29895 2.236584 1.767767 1.767767 
C 2.236584 1.29895 2.5 0.663008 2.5 0 
C 2.5 -0.663008 2.236584 -1.29895 1.767767 -1.767767 
C 1.29895 -2.236584 0.663008 -2.5 0 -2.5 
C -0.663008 -2.5 -1.29895 -2.236584 -1.767767 -1.767767 
C -2.236584 -1.29895 -2.5 -0.663008 -2.5 0 
C -2.5 0.663008 -2.236584 1.29895 -1.767767 1.767767 
C -1.29895 2.236584 -0.663008 2.5 0 2.5 
z
" id="C1_0_7a5c60f8b3"/>
    </defs>
    <g clip-path="url(#p8069bbdf6c)">
     <use style="fill:#ffa500;" x="204.259557" xlink:href="#C1_0_7a5c60f8b3" y="255.32"/>
    </g>
    <g clip-path="url(#p8069bbdf6c)">
     <use style="fill:#ffa500;" x="243.100655" xlink:href="#C1_0_7a5c60f8b3" y="255.32"/>
    </g>
    <g clip-path="url(#p8069bbdf6c)">
     <use style="fill:#ffa500;" x="248.495252" xlink:href="#C1_0_7a5c60f8b3" y="255.32"/>
    </g>
    <g clip-path="url(#p8069bbdf6c)">
     <use style="fill:#ffa500;" x="259.284447" xlink:href="#C1_0_7a5c60f8b3" y="255.32"/>
    </g>
    <g clip-path="url(#p8069bbdf6c)">
     <use style="fill:#ffa500;" x="265.757963" xlink:href="#C1_0_7a5c60f8b3" y="255.32"/>
    </g>
    <g clip-path="url(#p8069bbdf6c)">
     <use style="fill:#ffa500;" x="276.547157" xlink:href="#C1_0_7a5c60f8b3" y="255.32"/>
    </g>
    <g clip-path="url(#p8069bbdf6c)">
     <use style="fill:#ffa500;" x="280.862835" xlink:href="#C1_0_7a5c60f8b3" y="251.343343"/>
    </g>
    <g clip-path="url(#p8069bbdf6c)">
     <use style="fill:#ffa500;" x="281.941754" xlink:href="#C1_0_7a5c60f8b3" y="259.032817"/>
    </g>
    <g clip-path="url(#p8069bbdf6c)">
     <use style="fill:#ffa500;" x="288.415271" xlink:href="#C1_0_7a5c60f8b3" y="255.32"/>
    </g>
    <g clip-path="url(#p8069bbdf6c)">
     <use style="fill:#ffa500;" x="290.573109" xlink:href="#C1_0_7a5c60f8b3" y="248.216116"/>
    </g>
    <g clip-path="url(#p8069bbdf6c)">
     <use style="fill:#ffa500;" x="291.652029" xlink:href="#C1_0_7a5c60f8b3" y="261.322258"/>
    </g>
    <g clip-path="url(#p8069bbdf6c)">
     <use style="fill:#ffa500;" x="328.335289" xlink:href="#C1_0_7a5c60f8b3" y="255.32"/>
    </g>
    <g clip-path="url(#p8069bbdf6c)">
     <use style="fill:#ffa500;" x="340.203402" xlink:href="#C1_0_7a5c60f8b3" y="255.32"/>
    </g>
    <g clip-path="url(#p8069bbdf6c)">
     <use style="fill:#ffa500;" x="352.071515" xlink:href="#C1_0_7a5c60f8b3" y="255.32"/>
    </g>
   </g>
  </g>
 </g>
 <defs>
  <clipPath id="p8069bbdf6c">
   <rect height="326.16" width="334.8" x="92.423906" y="10.7"/>
  </clipPath>
 </defs>
</svg>
