<?xml version="1.0" encoding="utf-8" standalone="no"?>
<!DOCTYPE svg PUBLIC "-//W3C//DTD SVG 1.1//EN"
  "http://www.w3.org/Graphics/SVG/1.1/DTD/svg11.dtd">
<!-- Created with matplotlib (http://matplotlib.org/) -->
<svg height="366pt" version="1.1" viewBox="0 0 406 366" width="406pt" xmlns="http://www.w3.org/2000/svg" xmlns:xlink="http://www.w3.org/1999/xlink">
 <defs>
  <style type="text/css">
*{stroke-linecap:butt;stroke-linejoin:round;}
  </style>
 </defs>
 <g id="figure_1">
  <g id="patch_1">
   <path d="M 0 366.607031 
L 406.241719 366.607031 
L 406.241719 0 
L 0 0 
z
" style="fill:#ffffff;"/>
  </g>
  <g id="axes_1">
   <g id="patch_2">
    <path d="M 60.741719 336.86 
L 395.541719 336.86 
L 395.541719 10.7 
L 60.741719 10.7 
z
" style="fill:#e5e5e5;"/>
   </g>
   <g id="matplotlib.axis_1">
    <g id="xtick_1">
     <g id="line2d_1">
      <defs>
       <path d="M 0 0 
L 0 3.5 
" id="mc87d1f9d07" style="stroke:#555555;stroke-width:0.8;"/>
      </defs>
      <g>
       <use style="fill:#555555;stroke:#555555;stroke-width:0.8;" x="144.441719" xlink:href="#mc87d1f9d07" y="336.86"/>
      </g>
     </g>
     <g id="text_1">
      <text style="fill:#555555;font-family:Arial Narrow;font-size:17px;font-style:normal;font-weight:400;text-anchor:middle;" transform="rotate(-0, 144.441719, 356.028281)" x="144.441719" y="356.028281">WHITE SOX</text>
     </g>
    </g>
    <g id="xtick_2">
     <g id="line2d_2">
      <g>
       <use style="fill:#555555;stroke:#555555;stroke-width:0.8;" x="311.841719" xlink:href="#mc87d1f9d07" y="336.86"/>
      </g>
     </g>
     <g id="text_2">
      <text style="fill:#555555;font-family:Arial Narrow;font-size:17px;font-style:normal;font-weight:400;text-anchor:middle;" transform="rotate(-0, 311.841719, 356.028281)" x="311.841719" y="356.028281">CUBS</text>
     </g>
    </g>
   </g>
   <g id="matplotlib.axis_2">
    <g id="ytick_1">
     <g id="line2d_3">
      <path clip-path="url(#pe6fdc31f58)" d="M 60.741719 326.711605 
L 395.541719 326.711605 
" style="fill:none;stroke:#ffffff;stroke-linecap:square;stroke-width:2;"/>
     </g>
     <g id="line2d_4">
      <defs>
       <path d="M 0 0 
L -3.5 0 
" id="m9304fcca8c" style="stroke:#555555;stroke-width:0.8;"/>
      </defs>
      <g>
       <use style="fill:#555555;stroke:#555555;stroke-width:0.8;" x="60.741719" xlink:href="#m9304fcca8c" y="326.711605"/>
      </g>
     </g>
     <g id="text_3">
      <text style="fill:#555555;font-family:Arial Narrow;font-size:17px;font-style:normal;font-weight:400;text-anchor:end;" transform="rotate(-0, 53.741719, 332.795746)" x="53.741719" y="332.795746">−1.6</text>
     </g>
    </g>
    <g id="ytick_2">
     <g id="line2d_5">
      <path clip-path="url(#pe6fdc31f58)" d="M 60.741719 284.668552 
L 395.541719 284.668552 
" style="fill:none;stroke:#ffffff;stroke-linecap:square;stroke-width:2;"/>
     </g>
     <g id="line2d_6">
      <g>
       <use style="fill:#555555;stroke:#555555;stroke-width:0.8;" x="60.741719" xlink:href="#m9304fcca8c" y="284.668552"/>
      </g>
     </g>
     <g id="text_4">
      <text style="fill:#555555;font-family:Arial Narrow;font-size:17px;font-style:normal;font-weight:400;text-anchor:end;" transform="rotate(-0, 53.741719, 290.752693)" x="53.741719" y="290.752693">−1.2</text>
     </g>
    </g>
    <g id="ytick_3">
     <g id="line2d_7">
      <path clip-path="url(#pe6fdc31f58)" d="M 60.741719 242.625499 
L 395.541719 242.625499 
" style="fill:none;stroke:#ffffff;stroke-linecap:square;stroke-width:2;"/>
     </g>
     <g id="line2d_8">
      <g>
       <use style="fill:#555555;stroke:#555555;stroke-width:0.8;" x="60.741719" xlink:href="#m9304fcca8c" y="242.625499"/>
      </g>
     </g>
     <g id="text_5">
      <text style="fill:#555555;font-family:Arial Narrow;font-size:17px;font-style:normal;font-weight:400;text-anchor:end;" transform="rotate(-0, 53.741719, 248.70964)" x="53.741719" y="248.70964">−0.8</text>
     </g>
    </g>
    <g id="ytick_4">
     <g id="line2d_9">
      <path clip-path="url(#pe6fdc31f58)" d="M 60.741719 200.582446 
L 395.541719 200.582446 
" style="fill:none;stroke:#ffffff;stroke-linecap:square;stroke-width:2;"/>
     </g>
     <g id="line2d_10">
      <g>
       <use style="fill:#555555;stroke:#555555;stroke-width:0.8;" x="60.741719" xlink:href="#m9304fcca8c" y="200.582446"/>
      </g>
     </g>
     <g id="text_6">
      <text style="fill:#555555;font-family:Arial Narrow;font-size:17px;font-style:normal;font-weight:400;text-anchor:end;" transform="rotate(-0, 53.741719, 206.666587)" x="53.741719" y="206.666587">−0.4</text>
     </g>
    </g>
    <g id="ytick_5">
     <g id="line2d_11">
      <path clip-path="url(#pe6fdc31f58)" d="M 60.741719 158.539393 
L 395.541719 158.539393 
" style="fill:none;stroke:#ffffff;stroke-linecap:square;stroke-width:2;"/>
     </g>
     <g id="line2d_12">
      <g>
       <use style="fill:#555555;stroke:#555555;stroke-width:0.8;" x="60.741719" xlink:href="#m9304fcca8c" y="158.539393"/>
      </g>
     </g>
     <g id="text_7">
      <text style="fill:#555555;font-family:Arial Narrow;font-size:17px;font-style:normal;font-weight:400;text-anchor:end;" transform="rotate(-0, 53.741719, 164.623534)" x="53.741719" y="164.623534">0.0</text>
     </g>
    </g>
    <g id="ytick_6">
     <g id="line2d_13">
      <path clip-path="url(#pe6fdc31f58)" d="M 60.741719 116.49634 
L 395.541719 116.49634 
" style="fill:none;stroke:#ffffff;stroke-linecap:square;stroke-width:2;"/>
     </g>
     <g id="line2d_14">
      <g>
       <use style="fill:#555555;stroke:#555555;stroke-width:0.8;" x="60.741719" xlink:href="#m9304fcca8c" y="116.49634"/>
      </g>
     </g>
     <g id="text_8">
      <text style="fill:#555555;font-family:Arial Narrow;font-size:17px;font-style:normal;font-weight:400;text-anchor:end;" transform="rotate(-0, 53.741719, 122.580481)" x="53.741719" y="122.580481">0.4</text>
     </g>
    </g>
    <g id="ytick_7">
     <g id="line2d_15">
      <path clip-path="url(#pe6fdc31f58)" d="M 60.741719 74.453287 
L 395.541719 74.453287 
" style="fill:none;stroke:#ffffff;stroke-linecap:square;stroke-width:2;"/>
     </g>
     <g id="line2d_16">
      <g>
       <use style="fill:#555555;stroke:#555555;stroke-width:0.8;" x="60.741719" xlink:href="#m9304fcca8c" y="74.453287"/>
      </g>
     </g>
     <g id="text_9">
      <text style="fill:#555555;font-family:Arial Narrow;font-size:17px;font-style:normal;font-weight:400;text-anchor:end;" transform="rotate(-0, 53.741719, 80.537428)" x="53.741719" y="80.537428">0.8</text>
     </g>
    </g>
    <g id="ytick_8">
     <g id="line2d_17">
      <path clip-path="url(#pe6fdc31f58)" d="M 60.741719 32.410234 
L 395.541719 32.410234 
" style="fill:none;stroke:#ffffff;stroke-linecap:square;stroke-width:2;"/>
     </g>
     <g id="line2d_18">
      <g>
       <use style="fill:#555555;stroke:#555555;stroke-width:0.8;" x="60.741719" xlink:href="#m9304fcca8c" y="32.410234"/>
      </g>
     </g>
     <g id="text_10">
      <text style="fill:#555555;font-family:Arial Narrow;font-size:17px;font-style:normal;font-weight:400;text-anchor:end;" transform="rotate(-0, 53.741719, 38.494375)" x="53.741719" y="38.494375">1.2</text>
     </g>
    </g>
    <g id="text_11">
     <text style="fill:#555555;font-family:Arial Narrow;font-size:16px;font-style:normal;font-weight:700;text-anchor:middle;" transform="rotate(-90, 18.8475, 173.78)" x="18.8475" y="173.78">WIN PROBABILTY ADDED (WPA)</text>
    </g>
   </g>
   <g id="PolyCollection_1">
    <defs>
     <path d="M 145.507594 -44.572486 
L 143.375843 -44.572486 
L 143.132922 -47.567527 
L 142.845663 -50.562568 
L 142.508552 -53.55761 
L 142.115933 -56.552651 
L 141.662121 -59.547692 
L 141.141534 -62.542734 
L 140.548856 -65.537775 
L 139.879214 -68.532816 
L 139.128377 -71.527858 
L 138.292961 -74.522899 
L 137.370657 -77.51794 
L 136.360449 -80.512982 
L 135.262829 -83.508023 
L 134.080005 -86.503064 
L 132.816076 -89.498106 
L 131.477172 -92.493147 
L 130.071546 -95.488188 
L 128.609608 -98.48323 
L 127.103884 -101.478271 
L 125.568893 -104.473312 
L 124.020942 -107.468354 
L 122.477824 -110.463395 
L 120.958427 -113.458436 
L 119.482262 -116.453478 
L 118.068911 -119.448519 
L 116.73743 -122.44356 
L 115.505704 -125.438601 
L 114.389808 -128.433643 
L 113.403379 -131.428684 
L 112.557046 -134.423725 
L 111.857945 -137.418767 
L 111.309341 -140.413808 
L 110.910395 -143.408849 
L 110.656077 -146.403891 
L 110.537257 -149.398932 
L 110.540955 -152.393973 
L 110.650766 -155.389015 
L 110.847424 -158.384056 
L 111.109498 -161.379097 
L 111.414183 -164.374139 
L 111.738153 -167.36918 
L 112.05844 -170.364221 
L 112.353293 -173.359263 
L 112.602992 -176.354304 
L 112.790574 -179.349345 
L 112.902435 -182.344387 
L 112.928807 -185.339428 
L 112.864068 -188.334469 
L 112.706894 -191.329511 
L 112.460237 -194.324552 
L 112.131153 -197.319593 
L 111.730472 -200.314635 
L 111.272337 -203.309676 
L 110.773645 -206.304717 
L 110.253389 -209.299759 
L 109.73196 -212.2948 
L 109.230411 -215.289841 
L 108.769739 -218.284882 
L 108.370186 -221.279924 
L 108.050608 -224.274965 
L 107.827916 -227.270006 
L 107.716626 -230.265048 
L 107.728505 -233.260089 
L 107.872345 -236.25513 
L 108.15385 -239.250172 
L 108.575634 -242.245213 
L 109.137327 -245.240254 
L 109.835763 -248.235296 
L 110.665244 -251.230337 
L 111.617851 -254.225378 
L 112.683788 -257.22042 
L 113.851744 -260.215461 
L 115.109244 -263.210502 
L 116.442989 -266.205544 
L 117.839169 -269.200585 
L 119.283746 -272.195626 
L 120.762696 -275.190668 
L 122.262229 -278.185709 
L 123.768966 -281.18075 
L 125.270104 -284.175792 
L 126.753548 -287.170833 
L 128.208035 -290.165874 
L 129.623235 -293.160916 
L 130.989854 -296.155957 
L 132.299711 -299.150998 
L 133.545809 -302.14604 
L 134.722392 -305.141081 
L 135.824974 -308.136122 
L 136.850357 -311.131163 
L 137.796619 -314.126205 
L 138.663069 -317.121246 
L 139.450186 -320.116287 
L 140.15953 -323.111329 
L 140.793619 -326.10637 
L 141.355805 -329.101411 
L 141.850124 -332.096453 
L 142.281141 -335.091494 
L 142.653799 -338.086535 
L 142.973263 -341.081577 
L 145.910175 -341.081577 
L 145.910175 -341.081577 
L 146.229639 -338.086535 
L 146.602296 -335.091494 
L 147.033314 -332.096453 
L 147.527633 -329.101411 
L 148.089819 -326.10637 
L 148.723908 -323.111329 
L 149.433251 -320.116287 
L 150.220369 -317.121246 
L 151.086819 -314.126205 
L 152.03308 -311.131163 
L 153.058464 -308.136122 
L 154.161046 -305.141081 
L 155.337628 -302.14604 
L 156.583726 -299.150998 
L 157.893583 -296.155957 
L 159.260202 -293.160916 
L 160.675403 -290.165874 
L 162.129889 -287.170833 
L 163.613334 -284.175792 
L 165.114472 -281.18075 
L 166.621209 -278.185709 
L 168.120741 -275.190668 
L 169.599692 -272.195626 
L 171.044268 -269.200585 
L 172.440449 -266.205544 
L 173.774194 -263.210502 
L 175.031693 -260.215461 
L 176.199649 -257.22042 
L 177.265587 -254.225378 
L 178.218193 -251.230337 
L 179.047674 -248.235296 
L 179.746111 -245.240254 
L 180.307804 -242.245213 
L 180.729588 -239.250172 
L 181.011092 -236.25513 
L 181.154932 -233.260089 
L 181.166811 -230.265048 
L 181.055521 -227.270006 
L 180.83283 -224.274965 
L 180.513251 -221.279924 
L 180.113698 -218.284882 
L 179.653026 -215.289841 
L 179.151478 -212.2948 
L 178.630048 -209.299759 
L 178.109792 -206.304717 
L 177.6111 -203.309676 
L 177.152966 -200.314635 
L 176.752284 -197.319593 
L 176.4232 -194.324552 
L 176.176544 -191.329511 
L 176.019369 -188.334469 
L 175.954631 -185.339428 
L 175.981003 -182.344387 
L 176.092864 -179.349345 
L 176.280445 -176.354304 
L 176.530145 -173.359263 
L 176.824998 -170.364221 
L 177.145285 -167.36918 
L 177.469255 -164.374139 
L 177.77394 -161.379097 
L 178.036013 -158.384056 
L 178.232671 -155.389015 
L 178.342482 -152.393973 
L 178.346181 -149.398932 
L 178.22736 -146.403891 
L 177.973042 -143.408849 
L 177.574096 -140.413808 
L 177.025493 -137.418767 
L 176.326391 -134.423725 
L 175.480059 -131.428684 
L 174.493629 -128.433643 
L 173.377733 -125.438601 
L 172.146007 -122.44356 
L 170.814526 -119.448519 
L 169.401176 -116.453478 
L 167.92501 -113.458436 
L 166.405613 -110.463395 
L 164.862495 -107.468354 
L 163.314545 -104.473312 
L 161.779554 -101.478271 
L 160.273829 -98.48323 
L 158.811891 -95.488188 
L 157.406265 -92.493147 
L 156.067361 -89.498106 
L 154.803432 -86.503064 
L 153.620609 -83.508023 
L 152.522989 -80.512982 
L 151.51278 -77.51794 
L 150.590476 -74.522899 
L 149.755061 -71.527858 
L 149.004223 -68.532816 
L 148.334582 -65.537775 
L 147.741904 -62.542734 
L 147.221317 -59.547692 
L 146.767504 -56.552651 
L 146.374886 -53.55761 
L 146.037775 -50.562568 
L 145.750515 -47.567527 
L 145.507594 -44.572486 
z
" id="m8c57db311e"/>
    </defs>
    <g clip-path="url(#pe6fdc31f58)">
     <use style="fill-opacity:0.5;" x="0" xlink:href="#m8c57db311e" y="366.607031"/>
    </g>
   </g>
   <g id="PolyCollection_2">
    <defs>
     <path d="M 312.976651 -93.456259 
L 310.706787 -93.456259 
L 310.446384 -95.824725 
L 310.144024 -98.193191 
L 309.797338 -100.561657 
L 309.404791 -102.930123 
L 308.965835 -105.298589 
L 308.48101 -107.667055 
L 307.951982 -110.035521 
L 307.381486 -112.403987 
L 306.773185 -114.772453 
L 306.131411 -117.140919 
L 305.460821 -119.509385 
L 304.765959 -121.877851 
L 304.050764 -124.246318 
L 303.318047 -126.614784 
L 302.568986 -128.98325 
L 301.802679 -131.351716 
L 301.015797 -133.720182 
L 300.20239 -136.088648 
L 299.353861 -138.457114 
L 298.459143 -140.82558 
L 297.505068 -143.194046 
L 296.476929 -145.562512 
L 295.359191 -147.930978 
L 294.136324 -150.299444 
L 292.793682 -152.66791 
L 291.31839 -155.036376 
L 289.700175 -157.404842 
L 287.932075 -159.773308 
L 286.011013 -162.141775 
L 283.938189 -164.510241 
L 281.719301 -166.878707 
L 279.364586 -169.247173 
L 276.888731 -171.615639 
L 274.310656 -173.984105 
L 271.653234 -176.352571 
L 268.942956 -178.721037 
L 266.209585 -181.089503 
L 263.485789 -183.457969 
L 260.806773 -185.826435 
L 258.209856 -188.194901 
L 255.733995 -190.563367 
L 253.419191 -192.931833 
L 251.305748 -195.300299 
L 249.433361 -197.668765 
L 247.84001 -200.037231 
L 246.560682 -202.405698 
L 245.625956 -204.774164 
L 245.060522 -207.14263 
L 244.881719 -209.511096 
L 245.098215 -211.879562 
L 245.708939 -214.248028 
L 246.702378 -216.616494 
L 248.056353 -218.98496 
L 249.73832 -221.353426 
L 251.706249 -223.721892 
L 253.910065 -226.090358 
L 256.29358 -228.458824 
L 258.796839 -230.82729 
L 261.358715 -233.195756 
L 263.919622 -235.564222 
L 266.424149 -237.932688 
L 268.823458 -240.301155 
L 271.077288 -242.669621 
L 273.155445 -245.038087 
L 275.038693 -247.406553 
L 276.719003 -249.775019 
L 278.199172 -252.143485 
L 279.491861 -254.511951 
L 280.618131 -256.880417 
L 281.605608 -259.248883 
L 282.486402 -261.617349 
L 283.294925 -263.985815 
L 284.065745 -266.354281 
L 284.831606 -268.722747 
L 285.621717 -271.091213 
L 286.460389 -273.459679 
L 287.366067 -275.828145 
L 288.350789 -278.196612 
L 289.420048 -280.565078 
L 290.573046 -282.933544 
L 291.803263 -285.30201 
L 293.099295 -287.670476 
L 294.445882 -290.038942 
L 295.825032 -292.407408 
L 297.217185 -294.775874 
L 298.602334 -297.14434 
L 299.961047 -299.512806 
L 301.275341 -301.881272 
L 302.529384 -304.249738 
L 303.709998 -306.618204 
L 304.806966 -308.98667 
L 305.813145 -311.355136 
L 306.724418 -313.723602 
L 307.539495 -316.092068 
L 308.25961 -318.460535 
L 308.888138 -320.829001 
L 309.430172 -323.197467 
L 309.892082 -325.565933 
L 310.281092 -327.934399 
L 313.402345 -327.934399 
L 313.402345 -327.934399 
L 313.791356 -325.565933 
L 314.253266 -323.197467 
L 314.795299 -320.829001 
L 315.423828 -318.460535 
L 316.143943 -316.092068 
L 316.95902 -313.723602 
L 317.870292 -311.355136 
L 318.876472 -308.98667 
L 319.97344 -306.618204 
L 321.154054 -304.249738 
L 322.408097 -301.881272 
L 323.722391 -299.512806 
L 325.081103 -297.14434 
L 326.466252 -294.775874 
L 327.858406 -292.407408 
L 329.237556 -290.038942 
L 330.584142 -287.670476 
L 331.880175 -285.30201 
L 333.110391 -282.933544 
L 334.263389 -280.565078 
L 335.332649 -278.196612 
L 336.31737 -275.828145 
L 337.223049 -273.459679 
L 338.06172 -271.091213 
L 338.851831 -268.722747 
L 339.617693 -266.354281 
L 340.388512 -263.985815 
L 341.197035 -261.617349 
L 342.07783 -259.248883 
L 343.065307 -256.880417 
L 344.191576 -254.511951 
L 345.484265 -252.143485 
L 346.964435 -249.775019 
L 348.644745 -247.406553 
L 350.527993 -245.038087 
L 352.60615 -242.669621 
L 354.85998 -240.301155 
L 357.259289 -237.932688 
L 359.763816 -235.564222 
L 362.324723 -233.195756 
L 364.886599 -230.82729 
L 367.389857 -228.458824 
L 369.773373 -226.090358 
L 371.977189 -223.721892 
L 373.945118 -221.353426 
L 375.627084 -218.98496 
L 376.981059 -216.616494 
L 377.974499 -214.248028 
L 378.585223 -211.879562 
L 378.801719 -209.511096 
L 378.622916 -207.14263 
L 378.057481 -204.774164 
L 377.122756 -202.405698 
L 375.843427 -200.037231 
L 374.250076 -197.668765 
L 372.377689 -195.300299 
L 370.264247 -192.931833 
L 367.949443 -190.563367 
L 365.473582 -188.194901 
L 362.876665 -185.826435 
L 360.197648 -183.457969 
L 357.473853 -181.089503 
L 354.740481 -178.721037 
L 352.030204 -176.352571 
L 349.372782 -173.984105 
L 346.794707 -171.615639 
L 344.318852 -169.247173 
L 341.964137 -166.878707 
L 339.745248 -164.510241 
L 337.672424 -162.141775 
L 335.751362 -159.773308 
L 333.983262 -157.404842 
L 332.365047 -155.036376 
L 330.889756 -152.66791 
L 329.547113 -150.299444 
L 328.324246 -147.930978 
L 327.206509 -145.562512 
L 326.178369 -143.194046 
L 325.224294 -140.82558 
L 324.329576 -138.457114 
L 323.481048 -136.088648 
L 322.667641 -133.720182 
L 321.880759 -131.351716 
L 321.114451 -128.98325 
L 320.365391 -126.614784 
L 319.632674 -124.246318 
L 318.917478 -121.877851 
L 318.222616 -119.509385 
L 317.552026 -117.140919 
L 316.910253 -114.772453 
L 316.301951 -112.403987 
L 315.731456 -110.035521 
L 315.202427 -107.667055 
L 314.717602 -105.298589 
L 314.278647 -102.930123 
L 313.8861 -100.561657 
L 313.539414 -98.193191 
L 313.237053 -95.824725 
L 312.976651 -93.456259 
z
" id="m2da8c1b0a2"/>
    </defs>
    <g clip-path="url(#pe6fdc31f58)">
     <use style="fill:#202bdf;fill-opacity:0.5;" x="0" xlink:href="#m2da8c1b0a2" y="366.607031"/>
    </g>
   </g>
   <g id="patch_3">
    <path clip-path="url(#pe6fdc31f58)" d="M 77.481719 222.655049 
L 211.401719 222.655049 
L 211.401719 131.474178 
L 77.481719 131.474178 
L 77.481719 222.655049 
z
" style="fill:none;stroke:#8fbc8b;stroke-linejoin:miter;stroke-width:2;"/>
   </g>
   <g id="patch_4">
    <path clip-path="url(#pe6fdc31f58)" d="M 244.881719 172.728924 
L 378.801719 172.728924 
L 378.801719 143.036018 
L 244.881719 143.036018 
L 244.881719 172.728924 
z
" style="fill:none;stroke:#8fbc8b;stroke-linejoin:miter;stroke-width:2;"/>
   </g>
   <g id="line2d_19">
    <path clip-path="url(#pe6fdc31f58)" d="M 144.441719 222.655049 
L 144.441719 257.340568 
" style="fill:none;stroke:#8fbc8b;stroke-linecap:square;stroke-width:2;"/>
   </g>
   <g id="line2d_20">
    <path clip-path="url(#pe6fdc31f58)" d="M 144.441719 131.474178 
L 144.441719 90.219432 
" style="fill:none;stroke:#8fbc8b;stroke-linecap:square;stroke-width:2;"/>
   </g>
   <g id="line2d_21">
    <path clip-path="url(#pe6fdc31f58)" d="M 110.961719 257.340568 
L 177.921719 257.340568 
" style="fill:none;stroke:#8fbc8b;stroke-linecap:square;stroke-width:2;"/>
   </g>
   <g id="line2d_22">
    <path clip-path="url(#pe6fdc31f58)" d="M 110.961719 90.219432 
L 177.921719 90.219432 
" style="fill:none;stroke:#8fbc8b;stroke-linecap:square;stroke-width:2;"/>
   </g>
   <g id="line2d_23">
    <path clip-path="url(#pe6fdc31f58)" d="M 311.841719 172.728924 
L 311.841719 190.071683 
" style="fill:none;stroke:#8fbc8b;stroke-linecap:square;stroke-width:2;"/>
   </g>
   <g id="line2d_24">
    <path clip-path="url(#pe6fdc31f58)" d="M 311.841719 143.036018 
L 311.841719 107.036653 
" style="fill:none;stroke:#8fbc8b;stroke-linecap:square;stroke-width:2;"/>
   </g>
   <g id="line2d_25">
    <path clip-path="url(#pe6fdc31f58)" d="M 278.361719 190.071683 
L 345.321719 190.071683 
" style="fill:none;stroke:#8fbc8b;stroke-linecap:square;stroke-width:2;"/>
   </g>
   <g id="line2d_26">
    <path clip-path="url(#pe6fdc31f58)" d="M 278.361719 107.036653 
L 345.321719 107.036653 
" style="fill:none;stroke:#8fbc8b;stroke-linecap:square;stroke-width:2;"/>
   </g>
   <g id="line2d_27">
    <path clip-path="url(#pe6fdc31f58)" d="M 77.481719 163.794775 
L 211.401719 163.794775 
" style="fill:none;stroke:#8fbc8b;stroke-linecap:square;stroke-width:2;"/>
   </g>
   <g id="line2d_28">
    <path clip-path="url(#pe6fdc31f58)" d="M 244.881719 152.758474 
L 378.801719 152.758474 
" style="fill:none;stroke:#8fbc8b;stroke-linecap:square;stroke-width:2;"/>
   </g>
   <g id="patch_5">
    <path d="M 60.741719 336.86 
L 60.741719 10.7 
" style="fill:none;stroke:#ffffff;stroke-linecap:square;stroke-linejoin:miter;"/>
   </g>
   <g id="patch_6">
    <path d="M 395.541719 336.86 
L 395.541719 10.7 
" style="fill:none;stroke:#ffffff;stroke-linecap:square;stroke-linejoin:miter;"/>
   </g>
   <g id="patch_7">
    <path d="M 60.741719 336.86 
L 395.541719 336.86 
" style="fill:none;stroke:#ffffff;stroke-linecap:square;stroke-linejoin:miter;"/>
   </g>
   <g id="patch_8">
    <path d="M 60.741719 10.7 
L 395.541719 10.7 
" style="fill:none;stroke:#ffffff;stroke-linecap:square;stroke-linejoin:miter;"/>
   </g>
   <g id="PathCollection_1">
    <defs>
     <path d="M 0 2.5 
C 0.663008 2.5 1.29895 2.236584 1.767767 1.767767 
C 2.236584 1.29895 2.5 0.663008 2.5 0 
C 2.5 -0.663008 2.236584 -1.29895 1.767767 -1.767767 
C 1.29895 -2.236584 0.663008 -2.5 0 -2.5 
C -0.663008 -2.5 -1.29895 -2.236584 -1.767767 -1.767767 
C -2.236584 -1.29895 -2.5 -0.663008 -2.5 0 
C -2.5 0.663008 -2.236584 1.29895 -1.767767 1.767767 
C -1.29895 2.236584 -0.663008 2.5 0 2.5 
z
" id="C0_0_ccd9bb3b67"/>
    </defs>
    <g clip-path="url(#pe6fdc31f58)">
     <use style="fill:#ffa500;" x="144.441719" xlink:href="#C0_0_ccd9bb3b67" y="257.340568"/>
    </g>
    <g clip-path="url(#pe6fdc31f58)">
     <use style="fill:#ffa500;" x="144.441719" xlink:href="#C0_0_ccd9bb3b67" y="230.012583"/>
    </g>
    <g clip-path="url(#pe6fdc31f58)">
     <use style="fill:#ffa500;" x="139.402158" xlink:href="#C0_0_ccd9bb3b67" y="227.910431"/>
    </g>
    <g clip-path="url(#pe6fdc31f58)">
     <use style="fill:#ffa500;" x="148.187272" xlink:href="#C0_0_ccd9bb3b67" y="224.757202"/>
    </g>
    <g clip-path="url(#pe6fdc31f58)">
     <use style="fill:#ffa500;" x="144.441719" xlink:href="#C0_0_ccd9bb3b67" y="216.348591"/>
    </g>
    <g clip-path="url(#pe6fdc31f58)">
     <use style="fill:#ffa500;" x="144.441719" xlink:href="#C0_0_ccd9bb3b67" y="202.684599"/>
    </g>
    <g clip-path="url(#pe6fdc31f58)">
     <use style="fill:#ffa500;" x="144.441719" xlink:href="#C0_0_ccd9bb3b67" y="170.101233"/>
    </g>
    <g clip-path="url(#pe6fdc31f58)">
     <use style="fill:#ffa500;" x="144.441719" xlink:href="#C0_0_ccd9bb3b67" y="157.488317"/>
    </g>
    <g clip-path="url(#pe6fdc31f58)">
     <use style="fill:#ffa500;" x="144.441719" xlink:href="#C0_0_ccd9bb3b67" y="134.364638"/>
    </g>
    <g clip-path="url(#pe6fdc31f58)">
     <use style="fill:#ffa500;" x="139.402158" xlink:href="#C0_0_ccd9bb3b67" y="132.262485"/>
    </g>
    <g clip-path="url(#pe6fdc31f58)">
     <use style="fill:#ffa500;" x="149.205174" xlink:href="#C0_0_ccd9bb3b67" y="131.211409"/>
    </g>
    <g clip-path="url(#pe6fdc31f58)">
     <use style="fill:#ffa500;" x="144.441719" xlink:href="#C0_0_ccd9bb3b67" y="124.904951"/>
    </g>
    <g clip-path="url(#pe6fdc31f58)">
     <use style="fill:#ffa500;" x="144.441719" xlink:href="#C0_0_ccd9bb3b67" y="95.474814"/>
    </g>
    <g clip-path="url(#pe6fdc31f58)">
     <use style="fill:#ffa500;" x="140.696165" xlink:href="#C0_0_ccd9bb3b67" y="90.219432"/>
    </g>
   </g>
   <g id="PathCollection_2">
    <defs>
     <path d="M 0 2.5 
C 0.663008 2.5 1.29895 2.236584 1.767767 1.767767 
C 2.236584 1.29895 2.5 0.663008 2.5 0 
C 2.5 -0.663008 2.236584 -1.29895 1.767767 -1.767767 
C 1.29895 -2.236584 0.663008 -2.5 0 -2.5 
C -0.663008 -2.5 -1.29895 -2.236584 -1.767767 -1.767767 
C -2.236584 -1.29895 -2.5 -0.663008 -2.5 0 
C -2.5 0.663008 -2.236584 1.29895 -1.767767 1.767767 
C -1.29895 2.236584 -0.663008 2.5 0 2.5 
z
" id="C1_0_f3700ade48"/>
    </defs>
    <g clip-path="url(#pe6fdc31f58)">
     <use style="fill:#ffa500;" x="311.841719" xlink:href="#C1_0_f3700ade48" y="227.910431"/>
    </g>
    <g clip-path="url(#pe6fdc31f58)">
     <use style="fill:#ffa500;" x="311.841719" xlink:href="#C1_0_f3700ade48" y="190.071683"/>
    </g>
    <g clip-path="url(#pe6fdc31f58)">
     <use style="fill:#ffa500;" x="308.096165" xlink:href="#C1_0_f3700ade48" y="184.816301"/>
    </g>
    <g clip-path="url(#pe6fdc31f58)">
     <use style="fill:#ffa500;" x="311.841719" xlink:href="#C1_0_f3700ade48" y="174.305538"/>
    </g>
    <g clip-path="url(#pe6fdc31f58)">
     <use style="fill:#ffa500;" x="309.000151" xlink:href="#C1_0_f3700ade48" y="167.99908"/>
    </g>
    <g clip-path="url(#pe6fdc31f58)">
     <use style="fill:#ffa500;" x="311.841719" xlink:href="#C1_0_f3700ade48" y="157.488317"/>
    </g>
    <g clip-path="url(#pe6fdc31f58)">
     <use style="fill:#ffa500;" x="307.494171" xlink:href="#C1_0_f3700ade48" y="153.284012"/>
    </g>
    <g clip-path="url(#pe6fdc31f58)">
     <use style="fill:#ffa500;" x="315.587272" xlink:href="#C1_0_f3700ade48" y="152.232935"/>
    </g>
    <g clip-path="url(#pe6fdc31f58)">
     <use style="fill:#ffa500;" x="311.841719" xlink:href="#C1_0_f3700ade48" y="145.926477"/>
    </g>
    <g clip-path="url(#pe6fdc31f58)">
     <use style="fill:#ffa500;" x="306.802158" xlink:href="#C1_0_f3700ade48" y="143.824325"/>
    </g>
    <g clip-path="url(#pe6fdc31f58)">
     <use style="fill:#ffa500;" x="316.605174" xlink:href="#C1_0_f3700ade48" y="142.773248"/>
    </g>
    <g clip-path="url(#pe6fdc31f58)">
     <use style="fill:#ffa500;" x="311.841719" xlink:href="#C1_0_f3700ade48" y="107.036653"/>
    </g>
    <g clip-path="url(#pe6fdc31f58)">
     <use style="fill:#ffa500;" x="311.841719" xlink:href="#C1_0_f3700ade48" y="95.474814"/>
    </g>
    <g clip-path="url(#pe6fdc31f58)">
     <use style="fill:#ffa500;" x="311.841719" xlink:href="#C1_0_f3700ade48" y="83.912974"/>
    </g>
   </g>
  </g>
 </g>
 <defs>
  <clipPath id="pe6fdc31f58">
   <rect height="326.16" width="334.8" x="60.741719" y="10.7"/>
  </clipPath>
 </defs>
</svg>
