<?xml version="1.0" encoding="utf-8" standalone="no"?>
<!DOCTYPE svg PUBLIC "-//W3C//DTD SVG 1.1//EN"
  "http://www.w3.org/Graphics/SVG/1.1/DTD/svg11.dtd">
<!-- Created with matplotlib (http://matplotlib.org/) -->
<svg height="367pt" version="1.1" viewBox="0 0 420 367" width="420pt" xmlns="http://www.w3.org/2000/svg" xmlns:xlink="http://www.w3.org/1999/xlink">
 <defs>
  <style type="text/css">
*{stroke-linecap:butt;stroke-linejoin:round;}
  </style>
 </defs>
 <g id="figure_1">
  <g id="patch_1">
   <path d="M 0 367.512812 
L 420.465781 367.512812 
L 420.465781 -0 
L 0 -0 
z
" style="fill:#ffffff;"/>
  </g>
  <g id="axes_1">
   <g id="patch_2">
    <path d="M 74.965781 336.86 
L 409.765781 336.86 
L 409.765781 10.7 
L 74.965781 10.7 
z
" style="fill:#e5e5e5;"/>
   </g>
   <g id="matplotlib.axis_1">
    <g id="xtick_1">
     <g id="line2d_1">
      <defs>
       <path d="M 0 0 
L 0 3.5 
" id="me87d86e8b1" style="stroke:#555555;stroke-width:0.8;"/>
      </defs>
      <g>
       <use style="fill:#555555;stroke:#555555;stroke-width:0.8;" x="158.665781" xlink:href="#me87d86e8b1" y="336.86"/>
      </g>
     </g>
     <g id="text_1">
      <text style="fill:#555555;font-family:Arial;font-size:17px;font-style:normal;font-weight:400;text-anchor:middle;" transform="rotate(-0, 158.665781, 356.777344)" x="158.665781" y="356.777344">WHITE SOX</text>
     </g>
    </g>
    <g id="xtick_2">
     <g id="line2d_2">
      <g>
       <use style="fill:#555555;stroke:#555555;stroke-width:0.8;" x="326.065781" xlink:href="#me87d86e8b1" y="336.86"/>
      </g>
     </g>
     <g id="text_2">
      <text style="fill:#555555;font-family:Arial;font-size:17px;font-style:normal;font-weight:400;text-anchor:middle;" transform="rotate(-0, 326.065781, 356.777344)" x="326.065781" y="356.777344">CUBS</text>
     </g>
    </g>
   </g>
   <g id="matplotlib.axis_2">
    <g id="ytick_1">
     <g id="line2d_3">
      <path clip-path="url(#p6eda61c69b)" d="M 74.965781 326.655606 
L 409.765781 326.655606 
" style="fill:none;stroke:#ffffff;stroke-linecap:square;stroke-width:2;"/>
     </g>
     <g id="line2d_4">
      <defs>
       <path d="M 0 0 
L -3.5 0 
" id="md53da8dca9" style="stroke:#555555;stroke-width:0.8;"/>
      </defs>
      <g>
       <use style="fill:#555555;stroke:#555555;stroke-width:0.8;" x="74.965781" xlink:href="#md53da8dca9" y="326.655606"/>
      </g>
     </g>
     <g id="text_3">
      <text style="fill:#555555;font-family:Arial;font-size:17px;font-style:normal;font-weight:400;text-anchor:end;" transform="rotate(-0, 67.965781, 333.114278)" x="67.965781" y="333.114278">−1.6</text>
     </g>
    </g>
    <g id="ytick_2">
     <g id="line2d_5">
      <path clip-path="url(#p6eda61c69b)" d="M 74.965781 284.627948 
L 409.765781 284.627948 
" style="fill:none;stroke:#ffffff;stroke-linecap:square;stroke-width:2;"/>
     </g>
     <g id="line2d_6">
      <g>
       <use style="fill:#555555;stroke:#555555;stroke-width:0.8;" x="74.965781" xlink:href="#md53da8dca9" y="284.627948"/>
      </g>
     </g>
     <g id="text_4">
      <text style="fill:#555555;font-family:Arial;font-size:17px;font-style:normal;font-weight:400;text-anchor:end;" transform="rotate(-0, 67.965781, 291.08662)" x="67.965781" y="291.08662">−1.2</text>
     </g>
    </g>
    <g id="ytick_3">
     <g id="line2d_7">
      <path clip-path="url(#p6eda61c69b)" d="M 74.965781 242.60029 
L 409.765781 242.60029 
" style="fill:none;stroke:#ffffff;stroke-linecap:square;stroke-width:2;"/>
     </g>
     <g id="line2d_8">
      <g>
       <use style="fill:#555555;stroke:#555555;stroke-width:0.8;" x="74.965781" xlink:href="#md53da8dca9" y="242.60029"/>
      </g>
     </g>
     <g id="text_5">
      <text style="fill:#555555;font-family:Arial;font-size:17px;font-style:normal;font-weight:400;text-anchor:end;" transform="rotate(-0, 67.965781, 249.058962)" x="67.965781" y="249.058962">−0.8</text>
     </g>
    </g>
    <g id="ytick_4">
     <g id="line2d_9">
      <path clip-path="url(#p6eda61c69b)" d="M 74.965781 200.572632 
L 409.765781 200.572632 
" style="fill:none;stroke:#ffffff;stroke-linecap:square;stroke-width:2;"/>
     </g>
     <g id="line2d_10">
      <g>
       <use style="fill:#555555;stroke:#555555;stroke-width:0.8;" x="74.965781" xlink:href="#md53da8dca9" y="200.572632"/>
      </g>
     </g>
     <g id="text_6">
      <text style="fill:#555555;font-family:Arial;font-size:17px;font-style:normal;font-weight:400;text-anchor:end;" transform="rotate(-0, 67.965781, 207.031304)" x="67.965781" y="207.031304">−0.4</text>
     </g>
    </g>
    <g id="ytick_5">
     <g id="line2d_11">
      <path clip-path="url(#p6eda61c69b)" d="M 74.965781 158.544974 
L 409.765781 158.544974 
" style="fill:none;stroke:#ffffff;stroke-linecap:square;stroke-width:2;"/>
     </g>
     <g id="line2d_12">
      <g>
       <use style="fill:#555555;stroke:#555555;stroke-width:0.8;" x="74.965781" xlink:href="#md53da8dca9" y="158.544974"/>
      </g>
     </g>
     <g id="text_7">
      <text style="fill:#555555;font-family:Arial;font-size:17px;font-style:normal;font-weight:400;text-anchor:end;" transform="rotate(-0, 67.965781, 165.003646)" x="67.965781" y="165.003646">0.0</text>
     </g>
    </g>
    <g id="ytick_6">
     <g id="line2d_13">
      <path clip-path="url(#p6eda61c69b)" d="M 74.965781 116.517316 
L 409.765781 116.517316 
" style="fill:none;stroke:#ffffff;stroke-linecap:square;stroke-width:2;"/>
     </g>
     <g id="line2d_14">
      <g>
       <use style="fill:#555555;stroke:#555555;stroke-width:0.8;" x="74.965781" xlink:href="#md53da8dca9" y="116.517316"/>
      </g>
     </g>
     <g id="text_8">
      <text style="fill:#555555;font-family:Arial;font-size:17px;font-style:normal;font-weight:400;text-anchor:end;" transform="rotate(-0, 67.965781, 122.975988)" x="67.965781" y="122.975988">0.4</text>
     </g>
    </g>
    <g id="ytick_7">
     <g id="line2d_15">
      <path clip-path="url(#p6eda61c69b)" d="M 74.965781 74.489658 
L 409.765781 74.489658 
" style="fill:none;stroke:#ffffff;stroke-linecap:square;stroke-width:2;"/>
     </g>
     <g id="line2d_16">
      <g>
       <use style="fill:#555555;stroke:#555555;stroke-width:0.8;" x="74.965781" xlink:href="#md53da8dca9" y="74.489658"/>
      </g>
     </g>
     <g id="text_9">
      <text style="fill:#555555;font-family:Arial;font-size:17px;font-style:normal;font-weight:400;text-anchor:end;" transform="rotate(-0, 67.965781, 80.94833)" x="67.965781" y="80.94833">0.8</text>
     </g>
    </g>
    <g id="ytick_8">
     <g id="line2d_17">
      <path clip-path="url(#p6eda61c69b)" d="M 74.965781 32.462 
L 409.765781 32.462 
" style="fill:none;stroke:#ffffff;stroke-linecap:square;stroke-width:2;"/>
     </g>
     <g id="line2d_18">
      <g>
       <use style="fill:#555555;stroke:#555555;stroke-width:0.8;" x="74.965781" xlink:href="#md53da8dca9" y="32.462"/>
      </g>
     </g>
     <g id="text_10">
      <text style="fill:#555555;font-family:Arial;font-size:17px;font-style:normal;font-weight:400;text-anchor:end;" transform="rotate(-0, 67.965781, 38.920672)" x="67.965781" y="38.920672">1.2</text>
     </g>
    </g>
    <g id="text_11">
     <text style="fill:#555555;font-family:Arial;font-size:16px;font-style:normal;font-weight:700;text-anchor:middle;" transform="rotate(-90, 19.3575, 173.78)" x="19.3575" y="173.78">WIN PROBABILTY ADDED (WPA)</text>
    </g>
   </g>
   <g id="PolyCollection_1">
    <defs>
     <path d="M 159.840263 -45.478267 
L 157.491299 -45.478267 
L 157.227229 -48.473308 
L 156.915789 -51.46835 
L 156.55121 -54.463391 
L 156.127563 -57.458432 
L 155.638862 -60.453474 
L 155.079188 -63.448515 
L 154.442831 -66.443556 
L 153.72445 -69.438598 
L 152.919247 -72.433639 
L 152.02316 -75.42868 
L 151.033063 -78.423722 
L 149.946981 -81.418763 
L 148.764298 -84.413804 
L 147.485975 -87.408846 
L 146.114743 -90.403887 
L 144.655287 -93.398928 
L 143.114392 -96.39397 
L 141.501052 -99.389011 
L 139.826517 -102.384052 
L 138.10428 -105.379093 
L 136.349969 -108.374135 
L 134.581172 -111.369176 
L 132.81714 -114.364217 
L 131.078415 -117.359259 
L 129.386342 -120.3543 
L 127.762508 -123.349341 
L 126.228102 -126.344383 
L 124.803229 -129.339424 
L 123.506201 -132.334465 
L 122.352837 -135.329507 
L 121.35581 -138.324548 
L 120.524074 -141.319589 
L 119.862402 -144.314631 
L 119.371078 -147.309672 
L 119.045751 -150.304713 
L 118.877476 -153.299755 
L 118.852943 -156.294796 
L 118.954897 -159.289837 
L 119.162728 -162.284879 
L 119.453207 -165.27992 
L 119.801335 -168.274961 
L 120.181275 -171.270003 
L 120.567313 -174.265044 
L 120.934809 -177.260085 
L 121.261097 -180.255127 
L 121.526304 -183.250168 
L 121.714032 -186.245209 
L 121.811907 -189.240251 
L 121.811953 -192.235292 
L 121.7108 -195.230333 
L 121.509716 -198.225374 
L 121.214466 -201.220416 
L 120.83502 -204.215457 
L 120.38513 -207.210498 
L 119.881778 -210.20554 
L 119.344549 -213.200581 
L 118.794935 -216.195622 
L 118.255602 -219.190664 
L 117.749653 -222.185705 
L 117.299902 -225.180746 
L 116.928197 -228.175788 
L 116.654792 -231.170829 
L 116.497806 -234.16587 
L 116.47277 -237.160912 
L 116.592272 -240.155953 
L 116.865708 -243.150994 
L 117.299143 -246.146036 
L 117.895267 -249.141077 
L 118.653453 -252.136118 
L 119.569895 -255.13116 
L 120.637826 -258.126201 
L 121.847789 -261.121242 
L 123.187964 -264.116284 
L 124.644522 -267.111325 
L 126.201999 -270.106366 
L 127.84369 -273.101408 
L 129.552029 -276.096449 
L 131.308978 -279.09149 
L 133.096388 -282.086532 
L 134.896351 -285.081573 
L 136.691524 -288.076614 
L 138.465426 -291.071655 
L 140.202707 -294.066697 
L 141.889377 -297.061738 
L 143.513003 -300.056779 
L 145.06286 -303.051821 
L 146.53004 -306.046862 
L 147.907513 -309.041903 
L 149.190145 -312.036945 
L 150.374664 -315.031986 
L 151.459584 -318.027027 
L 152.445093 -321.022069 
L 153.332893 -324.01711 
L 154.126029 -327.012151 
L 154.82868 -330.007193 
L 155.445945 -333.002234 
L 155.98363 -335.997275 
L 156.448025 -338.992317 
L 156.845707 -341.987358 
L 160.485856 -341.987358 
L 160.485856 -341.987358 
L 160.883537 -338.992317 
L 161.347933 -335.997275 
L 161.885617 -333.002234 
L 162.502883 -330.007193 
L 163.205533 -327.012151 
L 163.998669 -324.01711 
L 164.88647 -321.022069 
L 165.871978 -318.027027 
L 166.956899 -315.031986 
L 168.141417 -312.036945 
L 169.424049 -309.041903 
L 170.801523 -306.046862 
L 172.268703 -303.051821 
L 173.81856 -300.056779 
L 175.442186 -297.061738 
L 177.128856 -294.066697 
L 178.866136 -291.071655 
L 180.640039 -288.076614 
L 182.435211 -285.081573 
L 184.235175 -282.086532 
L 186.022585 -279.09149 
L 187.779533 -276.096449 
L 189.487873 -273.101408 
L 191.129563 -270.106366 
L 192.687041 -267.111325 
L 194.143598 -264.116284 
L 195.483773 -261.121242 
L 196.693737 -258.126201 
L 197.761667 -255.13116 
L 198.678109 -252.136118 
L 199.436295 -249.141077 
L 200.032419 -246.146036 
L 200.465854 -243.150994 
L 200.739291 -240.155953 
L 200.858792 -237.160912 
L 200.833756 -234.16587 
L 200.676771 -231.170829 
L 200.403366 -228.175788 
L 200.03166 -225.180746 
L 199.58191 -222.185705 
L 199.07596 -219.190664 
L 198.536627 -216.195622 
L 197.987013 -213.200581 
L 197.449785 -210.20554 
L 196.946433 -207.210498 
L 196.496542 -204.215457 
L 196.117097 -201.220416 
L 195.821846 -198.225374 
L 195.620762 -195.230333 
L 195.51961 -192.235292 
L 195.519656 -189.240251 
L 195.61753 -186.245209 
L 195.805258 -183.250168 
L 196.070465 -180.255127 
L 196.396754 -177.260085 
L 196.764249 -174.265044 
L 197.150287 -171.270003 
L 197.530228 -168.274961 
L 197.878356 -165.27992 
L 198.168834 -162.284879 
L 198.376666 -159.289837 
L 198.47862 -156.294796 
L 198.454087 -153.299755 
L 198.285811 -150.304713 
L 197.960485 -147.309672 
L 197.469161 -144.314631 
L 196.807489 -141.319589 
L 195.975752 -138.324548 
L 194.978725 -135.329507 
L 193.825362 -132.334465 
L 192.528334 -129.339424 
L 191.103461 -126.344383 
L 189.569054 -123.349341 
L 187.94522 -120.3543 
L 186.253147 -117.359259 
L 184.514422 -114.364217 
L 182.750391 -111.369176 
L 180.981593 -108.374135 
L 179.227283 -105.379093 
L 177.505045 -102.384052 
L 175.830511 -99.389011 
L 174.217171 -96.39397 
L 172.676276 -93.398928 
L 171.216819 -90.403887 
L 169.845587 -87.408846 
L 168.567264 -84.413804 
L 167.384582 -81.418763 
L 166.298499 -78.423722 
L 165.308403 -75.42868 
L 164.412315 -72.433639 
L 163.607112 -69.438598 
L 162.888731 -66.443556 
L 162.252375 -63.448515 
L 161.692701 -60.453474 
L 161.203999 -57.458432 
L 160.780352 -54.463391 
L 160.415773 -51.46835 
L 160.104334 -48.473308 
L 159.840263 -45.478267 
z
" id="md2aa759d78"/>
    </defs>
    <g clip-path="url(#p6eda61c69b)">
     <use style="fill-opacity:0.5;" x="0" xlink:href="#md2aa759d78" y="367.512812"/>
    </g>
   </g>
   <g id="PolyCollection_2">
    <defs>
     <path d="M 327.282822 -90.093969 
L 324.84874 -90.093969 
L 324.58213 -92.55914 
L 324.273713 -95.024311 
L 323.920792 -97.489481 
L 323.521273 -99.954652 
L 323.073781 -102.419822 
L 322.577753 -104.884993 
L 322.033473 -107.350163 
L 321.44206 -109.815334 
L 320.805379 -112.280505 
L 320.125893 -114.745675 
L 319.406446 -117.210846 
L 318.64998 -119.676016 
L 317.859214 -122.141187 
L 317.036302 -124.606357 
L 316.182481 -127.071528 
L 315.29776 -129.536699 
L 314.380662 -132.001869 
L 313.428048 -134.46704 
L 312.435051 -136.93221 
L 311.395131 -139.397381 
L 310.300256 -141.862552 
L 309.141202 -144.327722 
L 307.907965 -146.792893 
L 306.590264 -149.258063 
L 305.178093 -151.723234 
L 303.662309 -154.188404 
L 302.035209 -156.653575 
L 300.291072 -159.118746 
L 298.426646 -161.583916 
L 296.441553 -164.049087 
L 294.338619 -166.514257 
L 292.12411 -168.979428 
L 289.80789 -171.444598 
L 287.403505 -173.909769 
L 284.9282 -176.37494 
L 282.402869 -178.84011 
L 279.851937 -181.305281 
L 277.303167 -183.770451 
L 274.787368 -186.235622 
L 272.337983 -188.700792 
L 269.990538 -191.165963 
L 267.781921 -193.631134 
L 265.749487 -196.096304 
L 263.929979 -198.561475 
L 262.35829 -201.026645 
L 261.066109 -203.491816 
L 260.080497 -205.956986 
L 259.422485 -208.422157 
L 259.105781 -210.887328 
L 259.135685 -213.352498 
L 259.508313 -215.817669 
L 260.21021 -218.282839 
L 261.218426 -220.74801 
L 262.501082 -223.21318 
L 264.018431 -225.678351 
L 265.724388 -228.143522 
L 267.568444 -230.608692 
L 269.497872 -233.073863 
L 271.460092 -235.539033 
L 273.405068 -238.004204 
L 275.287563 -240.469374 
L 277.069147 -242.934545 
L 278.719812 -245.399716 
L 280.219111 -247.864886 
L 281.55676 -250.330057 
L 282.732674 -252.795227 
L 283.756449 -255.260398 
L 284.646343 -257.725568 
L 285.427829 -260.190739 
L 286.131817 -262.65591 
L 286.792671 -265.12108 
L 287.44613 -267.586251 
L 288.127271 -270.051421 
L 288.868614 -272.516592 
L 289.69847 -274.981762 
L 290.639614 -277.446933 
L 291.708323 -279.912104 
L 292.913832 -282.377274 
L 294.258173 -284.842445 
L 295.736421 -287.307615 
L 297.337265 -289.772786 
L 299.043879 -292.237957 
L 300.834999 -294.703127 
L 302.686145 -297.168298 
L 304.57091 -299.633468 
L 306.462231 -302.098639 
L 308.333583 -304.563809 
L 310.16004 -307.02898 
L 311.919155 -309.494151 
L 313.591641 -311.959321 
L 315.161821 -314.424492 
L 316.617871 -316.889662 
L 317.951852 -319.354833 
L 319.159568 -321.820003 
L 320.240265 -324.285174 
L 321.196225 -326.750345 
L 322.032286 -329.215515 
L 322.75531 -331.680686 
L 323.373663 -334.145856 
L 328.7579 -334.145856 
L 328.7579 -334.145856 
L 329.376252 -331.680686 
L 330.099277 -329.215515 
L 330.935337 -326.750345 
L 331.891298 -324.285174 
L 332.971994 -321.820003 
L 334.17971 -319.354833 
L 335.513692 -316.889662 
L 336.969742 -314.424492 
L 338.539921 -311.959321 
L 340.212407 -309.494151 
L 341.971523 -307.02898 
L 343.79798 -304.563809 
L 345.669331 -302.098639 
L 347.560652 -299.633468 
L 349.445418 -297.168298 
L 351.296564 -294.703127 
L 353.087683 -292.237957 
L 354.794297 -289.772786 
L 356.395142 -287.307615 
L 357.87339 -284.842445 
L 359.217731 -282.377274 
L 360.423239 -279.912104 
L 361.491949 -277.446933 
L 362.433092 -274.981762 
L 363.262949 -272.516592 
L 364.004292 -270.051421 
L 364.685433 -267.586251 
L 365.338892 -265.12108 
L 365.999745 -262.65591 
L 366.703734 -260.190739 
L 367.48522 -257.725568 
L 368.375114 -255.260398 
L 369.398888 -252.795227 
L 370.574802 -250.330057 
L 371.912451 -247.864886 
L 373.41175 -245.399716 
L 375.062415 -242.934545 
L 376.843999 -240.469374 
L 378.726494 -238.004204 
L 380.67147 -235.539033 
L 382.633691 -233.073863 
L 384.563118 -230.608692 
L 386.407174 -228.143522 
L 388.113132 -225.678351 
L 389.630481 -223.21318 
L 390.913136 -220.74801 
L 391.921352 -218.282839 
L 392.623249 -215.817669 
L 392.995877 -213.352498 
L 393.025781 -210.887328 
L 392.709077 -208.422157 
L 392.051065 -205.956986 
L 391.065453 -203.491816 
L 389.773272 -201.026645 
L 388.201584 -198.561475 
L 386.382075 -196.096304 
L 384.349641 -193.631134 
L 382.141025 -191.165963 
L 379.79358 -188.700792 
L 377.344195 -186.235622 
L 374.828395 -183.770451 
L 372.279626 -181.305281 
L 369.728694 -178.84011 
L 367.203363 -176.37494 
L 364.728058 -173.909769 
L 362.323673 -171.444598 
L 360.007452 -168.979428 
L 357.792943 -166.514257 
L 355.69001 -164.049087 
L 353.704917 -161.583916 
L 351.84049 -159.118746 
L 350.096353 -156.653575 
L 348.469253 -154.188404 
L 346.95347 -151.723234 
L 345.541299 -149.258063 
L 344.223597 -146.792893 
L 342.990361 -144.327722 
L 341.831306 -141.862552 
L 340.736431 -139.397381 
L 339.696512 -136.93221 
L 338.703515 -134.46704 
L 337.7509 -132.001869 
L 336.833802 -129.536699 
L 335.949082 -127.071528 
L 335.095261 -124.606357 
L 334.272348 -122.141187 
L 333.481583 -119.676016 
L 332.725116 -117.210846 
L 332.005669 -114.745675 
L 331.326184 -112.280505 
L 330.689502 -109.815334 
L 330.098089 -107.350163 
L 329.55381 -104.884993 
L 329.057782 -102.419822 
L 328.61029 -99.954652 
L 328.21077 -97.489481 
L 327.857849 -95.024311 
L 327.549433 -92.55914 
L 327.282822 -90.093969 
z
" id="m251449ef78"/>
    </defs>
    <g clip-path="url(#p6eda61c69b)">
     <use style="fill:#202bdf;fill-opacity:0.5;" x="0" xlink:href="#m251449ef78" y="367.512812"/>
    </g>
   </g>
   <g id="patch_3">
    <path clip-path="url(#p6eda61c69b)" d="M 91.705781 216.858349 
L 225.625781 216.858349 
L 225.625781 125.710866 
L 91.705781 125.710866 
L 91.705781 216.858349 
z
" style="fill:none;stroke:#8fbc8b;stroke-linejoin:miter;stroke-width:2;"/>
   </g>
   <g id="patch_4">
    <path clip-path="url(#p6eda61c69b)" d="M 259.105781 170.10258 
L 393.025781 170.10258 
L 393.025781 115.99197 
L 259.105781 115.99197 
L 259.105781 170.10258 
z
" style="fill:none;stroke:#8fbc8b;stroke-linejoin:miter;stroke-width:2;"/>
   </g>
   <g id="line2d_19">
    <path clip-path="url(#p6eda61c69b)" d="M 158.665781 216.858349 
L 158.665781 257.30997 
" style="fill:none;stroke:#8fbc8b;stroke-linecap:square;stroke-width:2;"/>
   </g>
   <g id="line2d_20">
    <path clip-path="url(#p6eda61c69b)" d="M 158.665781 125.710866 
L 158.665781 90.25003 
" style="fill:none;stroke:#8fbc8b;stroke-linecap:square;stroke-width:2;"/>
   </g>
   <g id="line2d_21">
    <path clip-path="url(#p6eda61c69b)" d="M 125.185781 257.30997 
L 192.145781 257.30997 
" style="fill:none;stroke:#8fbc8b;stroke-linecap:square;stroke-width:2;"/>
   </g>
   <g id="line2d_22">
    <path clip-path="url(#p6eda61c69b)" d="M 125.185781 90.25003 
L 192.145781 90.25003 
" style="fill:none;stroke:#8fbc8b;stroke-linecap:square;stroke-width:2;"/>
   </g>
   <g id="line2d_23">
    <path clip-path="url(#p6eda61c69b)" d="M 326.065781 170.10258 
L 326.065781 227.89061 
" style="fill:none;stroke:#8fbc8b;stroke-linecap:square;stroke-width:2;"/>
   </g>
   <g id="line2d_24">
    <path clip-path="url(#p6eda61c69b)" d="M 326.065781 115.99197 
L 326.065781 82.89519 
" style="fill:none;stroke:#8fbc8b;stroke-linecap:square;stroke-width:2;"/>
   </g>
   <g id="line2d_25">
    <path clip-path="url(#p6eda61c69b)" d="M 292.585781 227.89061 
L 359.545781 227.89061 
" style="fill:none;stroke:#8fbc8b;stroke-linecap:square;stroke-width:2;"/>
   </g>
   <g id="line2d_26">
    <path clip-path="url(#p6eda61c69b)" d="M 292.585781 82.89519 
L 359.545781 82.89519 
" style="fill:none;stroke:#8fbc8b;stroke-linecap:square;stroke-width:2;"/>
   </g>
   <g id="line2d_27">
    <path clip-path="url(#p6eda61c69b)" d="M 91.705781 163.798431 
L 225.625781 163.798431 
" style="fill:none;stroke:#8fbc8b;stroke-linecap:square;stroke-width:2;"/>
   </g>
   <g id="line2d_28">
    <path clip-path="url(#p6eda61c69b)" d="M 259.105781 151.71548 
L 393.025781 151.71548 
" style="fill:none;stroke:#8fbc8b;stroke-linecap:square;stroke-width:2;"/>
   </g>
   <g id="patch_5">
    <path d="M 74.965781 336.86 
L 74.965781 10.7 
" style="fill:none;stroke:#ffffff;stroke-linecap:square;stroke-linejoin:miter;"/>
   </g>
   <g id="patch_6">
    <path d="M 409.765781 336.86 
L 409.765781 10.7 
" style="fill:none;stroke:#ffffff;stroke-linecap:square;stroke-linejoin:miter;"/>
   </g>
   <g id="patch_7">
    <path d="M 74.965781 336.86 
L 409.765781 336.86 
" style="fill:none;stroke:#ffffff;stroke-linecap:square;stroke-linejoin:miter;"/>
   </g>
   <g id="patch_8">
    <path d="M 74.965781 10.7 
L 409.765781 10.7 
" style="fill:none;stroke:#ffffff;stroke-linecap:square;stroke-linejoin:miter;"/>
   </g>
   <g id="PathCollection_1">
    <defs>
     <path d="M 0 2.5 
C 0.663008 2.5 1.29895 2.236584 1.767767 1.767767 
C 2.236584 1.29895 2.5 0.663008 2.5 0 
C 2.5 -0.663008 2.236584 -1.29895 1.767767 -1.767767 
C 1.29895 -2.236584 0.663008 -2.5 0 -2.5 
C -0.663008 -2.5 -1.29895 -2.236584 -1.767767 -1.767767 
C -2.236584 -1.29895 -2.5 -0.663008 -2.5 0 
C -2.5 0.663008 -2.236584 1.29895 -1.767767 1.767767 
C -1.29895 2.236584 -0.663008 2.5 0 2.5 
z
" id="C0_0_c9508e60c0"/>
    </defs>
    <g clip-path="url(#p6eda61c69b)">
     <use style="fill:#ffa500;" x="158.665781" xlink:href="#C0_0_c9508e60c0" y="257.30997"/>
    </g>
    <g clip-path="url(#p6eda61c69b)">
     <use style="fill:#ffa500;" x="158.665781" xlink:href="#C0_0_c9508e60c0" y="229.991993"/>
    </g>
    <g clip-path="url(#p6eda61c69b)">
     <use style="fill:#ffa500;" x="154.918905" xlink:href="#C0_0_c9508e60c0" y="224.738535"/>
    </g>
    <g clip-path="url(#p6eda61c69b)">
     <use style="fill:#ffa500;" x="158.665781" xlink:href="#C0_0_c9508e60c0" y="217.383695"/>
    </g>
    <g clip-path="url(#p6eda61c69b)">
     <use style="fill:#ffa500;" x="153.626064" xlink:href="#C0_0_c9508e60c0" y="215.282312"/>
    </g>
    <g clip-path="url(#p6eda61c69b)">
     <use style="fill:#ffa500;" x="158.665781" xlink:href="#C0_0_c9508e60c0" y="202.674015"/>
    </g>
    <g clip-path="url(#p6eda61c69b)">
     <use style="fill:#ffa500;" x="158.665781" xlink:href="#C0_0_c9508e60c0" y="170.10258"/>
    </g>
    <g clip-path="url(#p6eda61c69b)">
     <use style="fill:#ffa500;" x="158.665781" xlink:href="#C0_0_c9508e60c0" y="157.494283"/>
    </g>
    <g clip-path="url(#p6eda61c69b)">
     <use style="fill:#ffa500;" x="158.665781" xlink:href="#C0_0_c9508e60c0" y="134.379071"/>
    </g>
    <g clip-path="url(#p6eda61c69b)">
     <use style="fill:#ffa500;" x="153.901952" xlink:href="#C0_0_c9508e60c0" y="131.226996"/>
    </g>
    <g clip-path="url(#p6eda61c69b)">
     <use style="fill:#ffa500;" x="158.665781" xlink:href="#C0_0_c9508e60c0" y="123.872156"/>
    </g>
    <g clip-path="url(#p6eda61c69b)">
     <use style="fill:#ffa500;" x="153.901952" xlink:href="#C0_0_c9508e60c0" y="120.720082"/>
    </g>
    <g clip-path="url(#p6eda61c69b)">
     <use style="fill:#ffa500;" x="158.665781" xlink:href="#C0_0_c9508e60c0" y="94.452796"/>
    </g>
    <g clip-path="url(#p6eda61c69b)">
     <use style="fill:#ffa500;" x="154.317504" xlink:href="#C0_0_c9508e60c0" y="90.25003"/>
    </g>
   </g>
   <g id="PathCollection_2">
    <defs>
     <path d="M 0 2.5 
C 0.663008 2.5 1.29895 2.236584 1.767767 1.767767 
C 2.236584 1.29895 2.5 0.663008 2.5 0 
C 2.5 -0.663008 2.236584 -1.29895 1.767767 -1.767767 
C 1.29895 -2.236584 0.663008 -2.5 0 -2.5 
C -0.663008 -2.5 -1.29895 -2.236584 -1.767767 -1.767767 
C -2.236584 -1.29895 -2.5 -0.663008 -2.5 0 
C -2.5 0.663008 -2.236584 1.29895 -1.767767 1.767767 
C -1.29895 2.236584 -0.663008 2.5 0 2.5 
z
" id="C1_0_cb15629501"/>
    </defs>
    <g clip-path="url(#p6eda61c69b)">
     <use style="fill:#ffa500;" x="326.065781" xlink:href="#C1_0_cb15629501" y="227.89061"/>
    </g>
    <g clip-path="url(#p6eda61c69b)">
     <use style="fill:#ffa500;" x="326.065781" xlink:href="#C1_0_cb15629501" y="190.065717"/>
    </g>
    <g clip-path="url(#p6eda61c69b)">
     <use style="fill:#ffa500;" x="322.318905" xlink:href="#C1_0_cb15629501" y="184.81226"/>
    </g>
    <g clip-path="url(#p6eda61c69b)">
     <use style="fill:#ffa500;" x="326.065781" xlink:href="#C1_0_cb15629501" y="174.305346"/>
    </g>
    <g clip-path="url(#p6eda61c69b)">
     <use style="fill:#ffa500;" x="326.065781" xlink:href="#C1_0_cb15629501" y="157.494283"/>
    </g>
    <g clip-path="url(#p6eda61c69b)">
     <use style="fill:#ffa500;" x="321.717504" xlink:href="#C1_0_cb15629501" y="153.291517"/>
    </g>
    <g clip-path="url(#p6eda61c69b)">
     <use style="fill:#ffa500;" x="329.812657" xlink:href="#C1_0_cb15629501" y="152.240825"/>
    </g>
    <g clip-path="url(#p6eda61c69b)">
     <use style="fill:#ffa500;" x="335.010884" xlink:href="#C1_0_cb15629501" y="151.190134"/>
    </g>
    <g clip-path="url(#p6eda61c69b)">
     <use style="fill:#ffa500;" x="326.065781" xlink:href="#C1_0_cb15629501" y="143.835294"/>
    </g>
    <g clip-path="url(#p6eda61c69b)">
     <use style="fill:#ffa500;" x="320.867554" xlink:href="#C1_0_cb15629501" y="142.784602"/>
    </g>
    <g clip-path="url(#p6eda61c69b)">
     <use style="fill:#ffa500;" x="326.065781" xlink:href="#C1_0_cb15629501" y="107.061093"/>
    </g>
    <g clip-path="url(#p6eda61c69b)">
     <use style="fill:#ffa500;" x="326.065781" xlink:href="#C1_0_cb15629501" y="97.60487"/>
    </g>
    <g clip-path="url(#p6eda61c69b)">
     <use style="fill:#ffa500;" x="326.065781" xlink:href="#C1_0_cb15629501" y="83.945881"/>
    </g>
    <g clip-path="url(#p6eda61c69b)">
     <use style="fill:#ffa500;" x="320.867554" xlink:href="#C1_0_cb15629501" y="82.89519"/>
    </g>
   </g>
  </g>
 </g>
 <defs>
  <clipPath id="p6eda61c69b">
   <rect height="326.16" width="334.8" x="74.965781" y="10.7"/>
  </clipPath>
 </defs>
</svg>
